<svg viewBox="0 0 460 449" xmlns="http://www.w3.org/2000/svg" fill-rule="evenodd" clip-rule="evenodd" stroke-linejoin="round" stroke-miterlimit="2"><path d="M91.582 113.034c25.732-37.235 80.724-3.108 168.418 13.88 87.694 16.987 130.803-18.688 193 34.585 35.492 30.399-87.562 47.616-105.531 92.154-19.658 48.725-72.76 172.45-157.192 169.364-84.433-3.087-114.428-49.398-136.656-89.138-26.671-47.684 38.867-79.865 37.961-108.406-1.298-40.882-15.153-90.512 0-112.439z" fill="#648ba9"/><path d="M371.338 344.714a75.82 75.82 0 00-85.418-88.618l-.002.001-43.175 44.869.871 12.408a41.695 41.695 0 0050.342 37.841h.002a52.026 52.026 0 0146.545 12.948l23.31 21.896 7.525-41.345z" fill="#3fae26"/><path d="M93.821 393.005a17.422 17.422 0 01-21.002-19.859l.409-2.454a31.45 31.45 0 0117.246-23.103l1.11-.541a11.196 11.196 0 003.341-17.642l-9.012-9.809a11.377 11.377 0 018.395-19.072l5.459.008a13.235 13.235 0 0012.093-18.656l-.002-.003a17.076 17.076 0 0120.413-23.374l23.561 6.957 49.244 48.445 5.774 25.736a15.983 15.983 0 01-22.025 18.13l-.002-.001a16.178 16.178 0 00-22.591 16.57l.031.285a10.289 10.289 0 01-17.328 8.563l-12.681-12.097a8.999 8.999 0 00-14.102 2.183l-1.332 2.427a32.403 32.403 0 01-21.306 16.028l-5.693 1.279z" fill="#de652e"/><path d="M157.986 168.378a4.542 4.542 0 008.053 4.055l4.192-6.271a21.282 21.282 0 0132.068-3.865l2.533 2.32c8.008 7.336 9.207 19.524 2.783 28.281L173.3 239.672l-28.211 47.907a21.281 21.281 0 01-29.324 7.428l-2.161-1.303a21.282 21.282 0 01-7.073-29.484l6.784-10.883a4.542 4.542 0 00-6.792-5.867l-19.197 16.281c-7.561 6.413-18.609 6.558-26.335.346a9381.509 9381.509 0 01-4.063-3.266 20.683 20.683 0 01-.983-31.395l6.093-5.561a4.54 4.54 0 00.765-5.801 4.541 4.541 0 00-5.586-1.742l-2.019.848a16.12 16.12 0 01-21.322-9.152l-1.972-5.203a15.247 15.247 0 01.794-12.56 15.245 15.245 0 019.965-7.687l.004-.001a4.219 4.219 0 00.642-8.004l-21.336-8.813a18.886 18.886 0 01-8.561-27.848l3.008-4.566a18.889 18.889 0 0129.258-2.832l16.471 16.796a4.53 4.53 0 007.699-3.957l-.001-.008a16.067 16.067 0 0115.126-18.832l4.663-.202a16.092 16.092 0 0116.79 15.948l.036 4.58a4.543 4.543 0 008.749 1.679l6.035-14.796a20.683 20.683 0 0128.847-10.456l4.997 2.653c9.074 4.816 13.237 15.563 9.776 25.236l-6.88 19.223z" fill="#ea9c65"/><path d="M370.495 145.741c2.705.815 4.463 3.293 4.485 6.372.091 12.729-3.789 25.736-14.932 33.522-16.108 11.256-38.666 9.977-52.452 25.605-4.347 4.928-7.242 11.008-9.128 17.306 0 0-1.177 2.76-3.2 3.705-4.096 1.914-9.743-2.252-8.168-7.466 3.713-12.291 11.802-24.464 23.997-31.679 11.358-6.721 25.188-8.819 37.034-14.402 5.015-2.364 9.68-5.976 12.088-11.03 2.351-4.933 2.861-10.597 2.786-16.058 0 0 1.749-7.135 7.49-5.875zM358.049 213.658c12.34.096 25.245 1.819 35.238 8.781 2.629 1.831 2.4 6.623-.898 7.405-1.719.407-2.903-.588-5.266-1.974-12.876-7.551-29.436-7.484-44.611-5.175-14.668 2.231-29.564 7.485-39.653 18.069 0 0-4.574 2.568-6.37-.914-1.253-2.431.946-5.003 3.434-7.245 15.375-13.859 37.053-19.022 58.126-18.947z" fill="#69cdea"/><path d="M284.755 309.392l-23.906 15.865 25.989 39.161 23.906-15.865-25.989-39.161zM300.309 247.6v28.691l58.952 7.741v-45.67l-58.952 9.238zM165.74 309.392l23.906 15.865-25.989 39.161-23.906-15.865 25.989-39.161z" fill="#c631a3"/><path d="M310.744 348.553l-23.906 15.865 3.56 21.641 18.316-.154 2.795-10.256 10.076 1.714 6.884-16.57-17.725-12.24zM139.751 348.553l23.906 15.865-3.56 21.641-18.316-.154-2.795-10.256-10.076 1.714-6.884-16.57 17.725-12.24z" fill="#3b3b3b"/><path d="M180.781 38.545a16.005 16.005 0 012.807-25.01c-.003-.007-.002-.007-.001-.008a16.017 16.017 0 0124.342 11.742c2.028 17.418 3.28 39.497-1.531 49.963-8.282 18.017-30.367 26.17-48.756 35.906-14.625 7.744-34.286 18.285-40.665 34.828-5.045 13.082-5.828 27.669-4.421 41.112a60.815 60.815 0 001.256 7.55c2.179 9.295 7.278 17.902 14.733 23.875 14.996 12.016 41.479 15.083 60.777 17.451 27.951 3.43 56.23 3.066 83.721 12.628 14.118 4.912 27.616 13.632 34.875 27.21 9.363 17.513 9.301 39.813-2.206 55.934-13.569 19.009-38.005 29.216-44.272 53.193-2.741 10.485 6.661 20 16.923 29.224a16.265 16.265 0 01-2.021 25.741l-.003.003a16.231 16.231 0 01-22.598-5.02c-1.939-3.106-3.533-5.93-3.961-7.43-6.221-21.801-6.871-46.01 6.438-65.391 8.953-13.039 22.744-22.006 33.457-33.646 4.391-4.772 8.102-10.351 9.582-16.633 3.074-13.05-1.044-28.007-10.162-37.25-9.757-9.889-23.855-13.855-37.085-16.484-33.805-6.72-69.996-4.518-102.374-15.488-20.345-6.893-38.657-21.876-43.983-44.598-1.946-8.299-2.317-16.923-2.089-25.454.478-17.833 5.089-36.085 16.414-50.279 11.99-15.028 30.244-23.613 47.749-32.374 11.131-5.601 23.095-11.687 26.738-24.115 2.737-9.337-5.045-18.67-13.684-27.18z" fill="#990065"/><path d="M212.805 174.693c-4.127 1.822-18.905 7.472-34.528 2.891-14.537-4.262-25.488-16.118-29.459-20.926a2.18 2.18 0 01-.435-1.717c.105-.606.465-1.096.96-1.308 5.174-2.127 18.98-6.723 33.517-2.461 14.599 4.281 25.582 16.22 29.509 20.988l-4.765-27.718c-3.877 1.727-16.342 6.454-29.471 2.604-12.256-3.593-21.522-13.614-25.084-17.96a2.183 2.183 0 01-.432-1.714c.104-.604.462-1.093.956-1.307 4.652-1.937 16.33-5.817 28.586-2.223 12.124 3.554 21.321 13.398 24.967 17.817l-3.935-22.888c-3.347 1.475-13.618 5.285-24.431 2.115-9.871-2.894-17.414-10.791-20.582-14.579a2.181 2.181 0 01-.448-1.733c.106-.613.473-1.107.977-1.315 4.112-1.653 13.532-4.577 23.403-1.682 9.936 2.913 17.513 10.896 20.644 14.654l-3.132-18.221c-2.561 1.19-9.118 3.666-15.95 1.663-6.104-1.79-10.828-6.685-13.135-9.494a2.18 2.18 0 01-.444-1.729c.106-.611.47-1.103.971-1.313 3.012-1.25 8.895-3.035 14.999-1.245 6.073 1.781 10.78 6.636 13.1 9.451l-1.393-8.103c-2.54-4.428-7.003-13.36-8.866-24.2-1.803-10.484-.718-20.097.184-25.26.129-.737.63-1.288 1.272-1.398.642-.111 1.299.241 1.667.893 2.574 4.566 6.807 13.264 8.609 23.748 1.907 11.092.582 21.21-.338 26.113l1.39 8.084c1.202-3.377 4.028-9.722 9.274-13.513 5.155-3.726 11.297-4.008 14.553-3.836.542.031 1.051.373 1.354.914.304.54.364 1.207.159 1.777-1.236 3.418-4.055 9.611-9.21 13.336-5.858 4.233-12.99 4.021-15.713 3.747l3.173 18.46c1.63-4.476 6.114-14.768 14.648-20.934 8.338-6.025 18.193-6.415 22.621-6.231.545.029 1.055.372 1.36.914a2.18 2.18 0 01.157 1.783c-1.722 4.629-6.194 14.591-14.531 20.616-9.239 6.676-20.342 6.433-23.859 6.156l3.976 23.126c1.889-5.254 7.278-17.855 17.666-25.361 10.352-7.481 22.655-7.723 27.687-7.451.537.036 1.037.378 1.338.912.3.535.362 1.193.165 1.76-1.907 5.286-7.294 17.826-17.646 25.307-11.2 8.093-24.683 7.714-28.772 7.377l4.806 27.957c2.022-5.632 8.392-20.836 20.889-29.867 12.279-8.872 26.827-9.151 32.414-8.874.538.035 1.04.377 1.341.913.302.535.363 1.196.164 1.764-2.137 5.858-8.5 20.69-20.779 29.562-13.319 9.625-29.309 9.137-33.634 8.797l1.728 10.055-2.473.425-1.739-10.118z" fill="#9f61e5"/><path d="M275.33 201.165c-4.408-.964-19.673-5.121-29.584-18.037-9.222-12.018-11.07-28.051-11.439-34.276a2.182 2.182 0 01.662-1.643c.442-.427 1.021-.611 1.547-.49 5.432 1.335 19.29 5.769 28.513 17.788 9.262 12.07 11.085 28.19 11.444 34.356l12.506-25.192c-4.15-.892-17.003-4.43-25.332-15.284-7.776-10.133-9.344-23.691-9.656-29.301a2.18 2.18 0 01.662-1.639c.441-.426 1.018-.61 1.543-.491 4.899 1.181 16.617 4.938 24.392 15.07 7.692 10.023 9.31 23.398 9.646 29.117l10.327-20.802c-3.572-.784-14.114-3.767-20.974-12.707-6.262-8.16-7.692-18.986-8.016-23.914a2.175 2.175 0 01.661-1.663c.447-.433 1.035-.615 1.564-.486 4.296 1.092 13.626 4.289 19.888 12.449 6.304 8.215 7.712 19.131 8.023 24.012l8.221-16.559c-2.769-.55-9.524-2.42-13.859-8.068-3.872-5.046-4.798-11.786-5.004-15.415a2.185 2.185 0 01.662-1.658c.446-.431 1.031-.613 1.559-.487 3.169.768 8.972 2.798 12.844 7.844 3.853 5.02 4.789 11.718 5.001 15.36l3.657-7.365c.561-5.073 2.228-14.918 7.119-24.77 4.73-9.528 11.277-16.649 15.051-20.286.539-.519 1.27-.668 1.853-.379.583.29.906.962.819 1.705-.616 5.205-2.33 14.726-7.06 24.254-5.005 10.081-12.044 17.468-15.68 20.884l-3.648 7.347c2.963-2.017 8.989-5.473 15.461-5.439 6.361.034 11.486 3.43 14.013 5.489.42.345.628.922.555 1.537a2.18 2.18 0 01-.92 1.529c-3.016 2.03-8.945 5.367-15.305 5.333-7.227-.038-12.86-4.417-14.898-6.245l-8.328 16.777c3.956-2.652 13.649-8.316 24.177-8.26 10.287.055 18.474 5.554 21.941 8.316.422.344.632.922.559 1.54a2.183 2.183 0 01-.926 1.532c-4.121 2.721-13.609 8.126-23.896 8.072-11.398-.061-20.219-6.807-22.895-9.106l-10.434 21.018c4.624-3.128 16.41-10.123 29.226-10.054 12.772.068 22.848 7.13 26.751 10.319.412.346.614.917.542 1.526a2.184 2.184 0 01-.905 1.518c-4.658 3.144-16.407 10.09-29.179 10.022-13.818-.073-24.48-8.334-27.583-11.019l-12.614 25.409c4.956-3.355 19.069-11.873 34.487-11.791 15.149.081 27.059 8.439 31.407 11.959.414.346.618.918.545 1.529a2.18 2.18 0 01-.909 1.52c-5.182 3.469-19.07 11.691-34.219 11.61-16.433-.088-29.055-9.916-32.346-12.742l-4.537 9.138-2.247-1.115 4.565-9.196z" fill="#fc5a00"/><path d="M144.256 246.708v28.691l-58.952 7.741v-45.67l58.952 9.238z" fill="#c631a3"/><path d="M195.108 178.045c-22.826-6.233-38.451-27.24-37.855-50.895l.262-10.39a6.023 6.023 0 00-11.549-2.535l-14.502 33.648c-9.728 22.572-3.723 48.844 14.846 64.947l10.275 8.91 38.524-43.684-.001-.001zM258.281 178.045c22.827-6.233 38.452-27.24 37.856-50.895l-.262-10.39a6.021 6.021 0 0111.549-2.535l14.502 33.648c9.728 22.572 3.722 48.844-14.846 64.947l-10.275 8.91-38.525-43.684.001-.001z" fill="#3b3b3b"/><circle cx="359.261" cy="261.197" r="22.835" fill="#3b3b3b"/><circle cx="225.248" cy="254.701" r="87.701" fill="#e33ebd"/><circle cx="85.304" cy="260.305" r="22.835" fill="#3b3b3b"/><path d="M387.938 107.764a1.366 1.366 0 001.464 1.366l15.246-1.115-6.259 4.884a7.136 7.136 0 00-1.758 9.247 28.426 28.426 0 013.5 20.502c-3.2 15.517-18.395 25.517-33.912 22.317-15.517-3.2-25.517-18.396-22.317-33.913a28.59 28.59 0 0110.502-16.864 7.111 7.111 0 001.671-9.291c-2.269-3.764-4.784-7.885-4.784-7.885l12.967 9.99a1.366 1.366 0 002.174-.823l3.819-19.847 3.984 19.823a1.366 1.366 0 002.488.468l11.275-17.599-.06 18.74z" fill="#69cdea"/><circle cx="183.493" cy="243.724" r="40.308" fill="#eee"/><path d="M420.902 246.008a1.367 1.367 0 00-1.625 1.17l-1.436 11.607-2.209-4.387a7.136 7.136 0 00-8.416-3.627 22.366 22.366 0 01-15.373-.769c-11.468-4.841-16.848-18.083-12.007-29.551 4.842-11.468 18.083-16.848 29.551-12.007a22.448 22.448 0 0110.903 9.758 7.125 7.125 0 008.653 3.173c2.844-1.033 5.546-2.025 5.546-2.025l-9.326 8.151a1.363 1.363 0 00.384 2.293l14.27 5.802-15.163.034a1.366 1.366 0 00-.943 2.349l11.315 10.881-14.124-2.852z" fill="#69cdea"/><circle cx="267.003" cy="243.724" r="40.308" fill="#eee"/><circle cx="183.493" cy="243.724" r="22.835" fill="#3b3b3b"/><circle cx="170.993" cy="227.215" r="10.335" fill="#fff"/><circle cx="267.003" cy="243.724" r="22.835" fill="#3b3b3b"/><circle cx="254.515" cy="226.3" r="10.335" fill="#fff"/></svg>