<?xml version="1.0" encoding="UTF-8" standalone="no"?>
<!DOCTYPE svg PUBLIC "-//W3C//DTD SVG 1.1//EN" "http://www.w3.org/Graphics/SVG/1.1/DTD/svg11.dtd">
<svg width="100%" height="100%" viewBox="0 0 53 52" version="1.1" xmlns="http://www.w3.org/2000/svg" xmlns:xlink="http://www.w3.org/1999/xlink" xml:space="preserve" xmlns:serif="http://www.serif.com/" style="fill-rule:evenodd;clip-rule:evenodd;stroke-linejoin:round;stroke-miterlimit:2;">
    <g transform="matrix(1,0,0,0.585185,-2492,-323)">
        <g>
            <g id="contact_info_fb">
                <g transform="matrix(0.385239,0,0,0.624168,2245.28,-1621.35)">
                    <path d="M777,3524.34C777,3515.77 773.769,3507.54 768.018,3501.47C762.267,3495.41 754.467,3492 746.333,3492L690.199,3492C674.922,3492 661.974,3503.86 659.835,3519.82C657.244,3539.14 653.765,3565.09 650.944,3586.13C649.7,3595.4 652.331,3604.79 658.155,3611.87C663.98,3618.94 672.426,3623 681.308,3623L746.333,3623C763.27,3623 777,3608.52 777,3590.66L777,3524.34Z" style="fill:rgb(112,101,215);"/>
                </g>
                <g transform="matrix(0.245391,0,0,0.419338,2386.13,-916.969)">
                    <path d="M542.899,3704C538.284,3704 534.542,3700.26 534.542,3695.64L534.542,3623L523.943,3623C520.661,3623 518,3620.34 518,3617.06L518,3610.1C518,3606.09 519.591,3602.25 522.422,3599.42C525.253,3596.59 529.093,3595 533.097,3595L534.542,3595L534.542,3570.63C534.542,3554.26 547.807,3541 564.17,3541L579.903,3541C588.241,3541 595,3547.76 595,3556.1L595,3565.91C595,3566.99 594.569,3568.04 593.802,3568.8C593.035,3569.57 591.995,3570 590.911,3570L576.136,3570C572.195,3570 569,3573.2 569,3577.14L569,3595L578.199,3595C582.483,3595 586.565,3596.82 589.428,3600.01C592.292,3603.19 593.666,3607.45 593.21,3611.71C592.979,3613.86 592.758,3615.93 592.569,3617.69C592.245,3620.71 589.697,3623 586.66,3623L569,3623L569,3695.64C569,3700.26 565.259,3704 560.643,3704L542.899,3704Z" style="fill:rgb(222,219,246);"/>
                </g>
                <g transform="matrix(0.193867,0,0,0.331291,2384.6,-622.481)">
                    <circle cx="569.997" cy="3580" r="15.997" style="fill:rgb(112,101,215);"/>
                </g>
                <g transform="matrix(0.0880842,0,0,0.143932,2449.4,40.6632)">
                    <circle cx="569.997" cy="3580" r="15.997" style="fill:rgb(112,101,215);"/>
                </g>
            </g>
        </g>
    </g>
</svg>
