<?xml version="1.0" encoding="UTF-8" standalone="no"?>
<!DOCTYPE svg PUBLIC "-//W3C//DTD SVG 1.1//EN" "http://www.w3.org/Graphics/SVG/1.1/DTD/svg11.dtd">
<svg width="100%" height="100%" viewBox="0 0 50 55" version="1.1" xmlns="http://www.w3.org/2000/svg" xmlns:xlink="http://www.w3.org/1999/xlink" xml:space="preserve" xmlns:serif="http://www.serif.com/" style="fill-rule:evenodd;clip-rule:evenodd;stroke-linejoin:round;stroke-miterlimit:2;">
    <g transform="matrix(1,0,0,1,-522,-3485)">
        <g transform="matrix(1,0,0,0.585185,-1970,3240)">
            <g id="contact_info_mail">
                <g transform="matrix(0.362569,0,0,0.619579,2259.32,-1733.46)">
                    <path d="M777,3524.58C777,3506.59 762.412,3492 744.416,3492C725.759,3492 702.486,3492 684.133,3492C666.843,3492 652.564,3505.5 651.6,3522.77C650.497,3542.51 649.063,3568.18 647.922,3588.6C647.422,3597.54 650.626,3606.3 656.781,3612.81C662.936,3619.31 671.498,3623 680.455,3623C700.244,3623 724.95,3623 744.416,3623C762.412,3623 777,3608.41 777,3590.42L777,3524.58Z" style="fill:rgb(112,101,215);"/>
                </g>
                <g transform="matrix(-0.0364594,-7.31859e-18,-1.28453e-17,-0.0761494,2520.33,704.761)">
                    <path d="M777,3520.9C777,3513.24 773.278,3505.89 766.653,3500.47C760.028,3495.05 751.042,3492 741.673,3492C741.652,3492 741.63,3492 741.609,3492C734.666,3492 728.294,3495.15 725.059,3500.17C716.327,3513.74 698.141,3541.99 681.411,3567.99C673.923,3579.62 674.422,3593.61 682.725,3604.86C691.029,3616.12 705.926,3623 721.995,3623C725.082,3623 728.137,3623 731.132,3623C756.464,3623 777,3606.2 777,3585.47C777,3564.94 777,3539.9 777,3520.9Z" style="fill:rgb(112,101,215);"/>
                </g>
                <g transform="matrix(0.724831,0,0,1.23863,2081.87,-3855.52)">
                    <text x="575.658px" y="3511.24px" style="font-family:'Lato-Bold', 'Lato', sans-serif;font-weight:700;font-size:64px;fill:rgb(222,219,246);">@</text>
                </g>
                <g transform="matrix(0.182458,0,0,0.311795,2395.11,-692.342)">
                    <circle cx="569.997" cy="3580" r="15.997" style="fill:rgb(112,101,215);"/>
                </g>
            </g>
        </g>
    </g>
</svg>
