<?xml version="1.0" encoding="UTF-8" standalone="no"?>
<!DOCTYPE svg PUBLIC "-//W3C//DTD SVG 1.1//EN" "http://www.w3.org/Graphics/SVG/1.1/DTD/svg11.dtd">
<svg width="100%" height="100%" viewBox="0 0 53 51" version="1.1" xmlns="http://www.w3.org/2000/svg" xmlns:xlink="http://www.w3.org/1999/xlink" xml:space="preserve" xmlns:serif="http://www.serif.com/" style="fill-rule:evenodd;clip-rule:evenodd;stroke-linejoin:round;stroke-miterlimit:2;">
    <g transform="matrix(1,0,0,1,-522,-3640)">
        <g transform="matrix(1,0,0,0.585185,-1970,3240)">
            <g id="contact_info_tel">
                <g transform="matrix(0.385239,0,0,0.619579,2245.28,-1474.33)">
                    <path d="M777,3524.58C777,3515.94 773.769,3507.65 768.018,3501.54C762.267,3495.43 754.467,3492 746.333,3492C728.787,3492 706.992,3492 690.172,3492C674.906,3492 661.965,3503.93 659.812,3519.99C657.236,3539.2 653.79,3564.9 650.985,3585.82C649.731,3595.17 652.357,3604.64 658.182,3611.77C664.006,3618.9 672.457,3623 681.345,3623C701.641,3623 726.878,3623 746.333,3623C763.27,3623 777,3608.41 777,3590.42C777,3570.33 777,3544.67 777,3524.58Z" style="fill:rgb(112,101,215);"/>
                </g>
                <g transform="matrix(0.441405,0.253841,-0.148544,0.754299,2681.59,-2275.56)">
                    <path d="M854,3664C845.627,3689.12 885,3725 910,3722C912.979,3721.64 920,3712 920,3710C920,3705.75 909,3697 905,3697C901.838,3697 895,3705 894,3705C887.763,3705 870,3684 870.5,3681C870.684,3679.9 878.75,3674.83 878,3670.66C877.25,3666.49 870,3657 866,3656C864.06,3655.51 855,3661 854,3664Z" style="fill:rgb(222,219,246);"/>
                </g>
                <g transform="matrix(0.193867,0,0,0.331291,2384.6,-491.478)">
                    <circle cx="569.997" cy="3580" r="15.997" style="fill:rgb(112,101,215);"/>
                </g>
                <g transform="matrix(0.0880842,0,0,0.143932,2449.4,171.666)">
                    <circle cx="569.997" cy="3580" r="15.997" style="fill:rgb(112,101,215);"/>
                </g>
            </g>
        </g>
    </g>
</svg>
