<svg viewBox="0 0 1923 632" xmlns="http://www.w3.org/2000/svg" fill-rule="evenodd" clip-rule="evenodd" stroke-linejoin="round" stroke-miterlimit="2"><path d="M1922.88 32c-88.9-21.442-211.78-45.837-369.763-20C1390.507 38.594 1130.173 96.857 961 98c-169.173 1.143-265.923-55.685-529.923-59.018C270.665 36.957 1 92 1 92L0 601h1922.88V32z" fill="#9a64d4"/><path d="M1921 230c-127.9-107.442-342.9-152.715-474.883-145.878C1281.568 92.647 1130.173 143.857 961 145c-169.173 1.143-263.923-80.685-529.923-65.018C270.93 89.414 1 180 1 180L0 632h1922.88L1921 230z" fill="#a06fd7"/></svg>