<?xml version="1.0" encoding="UTF-8" standalone="no"?>
<!DOCTYPE svg PUBLIC "-//W3C//DTD SVG 1.1//EN" "http://www.w3.org/Graphics/SVG/1.1/DTD/svg11.dtd">
<svg width="100%" height="100%" viewBox="0 0 382 215" version="1.1" xmlns="http://www.w3.org/2000/svg" xmlns:xlink="http://www.w3.org/1999/xlink" xml:space="preserve" xmlns:serif="http://www.serif.com/" style="fill-rule:evenodd;clip-rule:evenodd;stroke-linejoin:round;stroke-miterlimit:2;">
    <g transform="matrix(1,0,0,1,-507,-3485.13)">
        <g transform="matrix(1,0,0,0.585185,-1970,3240)">
            <g id="contact_info">
                <g transform="matrix(2.91176,0,0,0.494542,596.006,-1137.63)">
                    <path d="M777,3532.82C777,3522 776.573,3511.61 775.812,3503.96C775.051,3496.3 774.019,3492 772.943,3492C753.449,3492 669.551,3492 650.057,3492C648.981,3492 647.949,3496.3 647.188,3503.96C646.427,3511.61 646,3522 646,3532.82C646,3548.53 646,3566.47 646,3582.18C646,3593 646.427,3603.39 647.188,3611.04C647.949,3618.7 648.981,3623 650.057,3623C669.551,3623 753.449,3623 772.943,3623C774.019,3623 775.051,3618.7 775.812,3611.04C776.573,3603.39 777,3593 777,3582.18C777,3566.47 777,3548.53 777,3532.82Z" style="fill:rgb(231,238,244);"/>
                </g>
                <g transform="matrix(2.91176,0,0,0.494542,596.006,-1006.63)">
                    <path d="M777,3532.82C777,3522 776.573,3511.61 775.812,3503.96C775.051,3496.3 774.019,3492 772.943,3492C753.449,3492 669.551,3492 650.057,3492C648.981,3492 647.949,3496.3 647.188,3503.96C646.427,3511.61 646,3522 646,3532.82C646,3548.53 646,3566.47 646,3582.18C646,3593 646.427,3603.39 647.188,3611.04C647.949,3618.7 648.981,3623 650.057,3623C669.551,3623 753.449,3623 772.943,3623C774.019,3623 775.051,3618.7 775.812,3611.04C776.573,3603.39 777,3593 777,3582.18C777,3566.47 777,3548.53 777,3532.82Z" style="fill:rgb(231,238,244);"/>
                </g>
                <g transform="matrix(2.91176,0,0,0.494542,596.006,-1268.82)">
                    <path d="M777,3532.82C777,3522 776.573,3511.61 775.812,3503.96C775.051,3496.3 774.019,3492 772.943,3492C753.449,3492 669.551,3492 650.057,3492C648.981,3492 647.949,3496.3 647.188,3503.96C646.427,3511.61 646,3522 646,3532.82C646,3548.53 646,3566.47 646,3582.18C646,3593 646.427,3603.39 647.188,3611.04C647.949,3618.7 648.981,3623 650.057,3623C669.551,3623 753.449,3623 772.943,3623C774.019,3623 775.051,3618.7 775.812,3611.04C776.573,3603.39 777,3593 777,3582.18C777,3566.47 777,3548.53 777,3532.82Z" style="fill:rgb(231,238,244);"/>
                </g>
                <g transform="matrix(0.385239,0,0,0.65832,2245.28,-1740.61)">
                    <path d="M777,3522.67C777,3514.53 773.769,3506.73 768.018,3500.98C762.267,3495.23 754.467,3492 746.333,3492C728.864,3492 707.183,3492 690.393,3492C675.032,3492 662.04,3503.37 659.999,3518.59C657.306,3538.68 653.586,3566.42 650.658,3588.26C649.483,3597.02 652.149,3605.87 657.972,3612.53C663.795,3619.18 672.209,3623 681.053,3623L746.333,3623C763.27,3623 777,3609.27 777,3592.33L777,3522.67Z" style="fill:rgb(112,101,215);"/>
                </g>
                <g transform="matrix(0.385239,0,0,0.65832,2245.28,-1609.61)">
                    <path d="M777,3522.67C777,3514.53 773.769,3506.73 768.018,3500.98C762.267,3495.23 754.467,3492 746.333,3492C728.864,3492 707.183,3492 690.393,3492C675.032,3492 662.04,3503.37 659.999,3518.59C657.306,3538.68 653.586,3566.42 650.658,3588.26C649.483,3597.02 652.149,3605.87 657.972,3612.53C663.795,3619.18 672.209,3623 681.053,3623C701.398,3623 726.785,3623 746.333,3623C763.27,3623 777,3609.27 777,3592.33C777,3571.35 777,3543.65 777,3522.67Z" style="fill:rgb(112,101,215);"/>
                </g>
                <g transform="matrix(0.362569,0,0,0.619579,2259.32,-1733.46)">
                    <path d="M777,3524.58C777,3506.59 762.412,3492 744.416,3492C725.759,3492 702.486,3492 684.133,3492C666.843,3492 652.564,3505.5 651.6,3522.77C650.497,3542.51 649.063,3568.18 647.922,3588.6C647.422,3597.54 650.626,3606.3 656.781,3612.81C662.936,3619.31 671.498,3623 680.455,3623C700.244,3623 724.95,3623 744.416,3623C762.412,3623 777,3608.41 777,3590.42L777,3524.58Z" style="fill:rgb(112,101,215);"/>
                </g>
                <g transform="matrix(-0.0364594,-7.31859e-18,-1.28453e-17,-0.0761494,2520.33,704.761)">
                    <path d="M777,3520.9C777,3513.24 773.278,3505.89 766.653,3500.47C760.028,3495.05 751.042,3492 741.673,3492C741.652,3492 741.63,3492 741.609,3492C734.666,3492 728.294,3495.15 725.059,3500.17C716.327,3513.74 698.141,3541.99 681.411,3567.99C673.923,3579.62 674.422,3593.61 682.725,3604.86C691.029,3616.12 705.926,3623 721.995,3623C725.082,3623 728.137,3623 731.132,3623C756.464,3623 777,3606.2 777,3585.47C777,3564.94 777,3539.9 777,3520.9Z" style="fill:rgb(112,101,215);"/>
                </g>
                <g transform="matrix(1,0,0,1.70886,1917.65,-5345.52)">
                    <text x="693.296px" y="3500.78px" style="font-family:'Lato-Bold', 'Lato', sans-serif;font-weight:700;font-size:20px;fill:rgb(49,80,110);">/bukiety<tspan x="767.996px " y="3500.78px ">.</tspan>alicjafal/</text>
                </g>
                <g transform="matrix(1,0,0,1.70886,1917.65,-5214.51)">
                    <text x="693.296px" y="3500.78px" style="font-family:'Lato-Bold', 'Lato', sans-serif;font-weight:700;font-size:20px;fill:rgb(49,80,110);">503 357 013</text>
                </g>
                <g transform="matrix(1,0,0,1.70886,1899.61,-5477.23)">
                    <text x="709.856px" y="3500.78px" style="font-family:'Lato-Bold', 'Lato', sans-serif;font-weight:700;font-size:20px;fill:rgb(49,80,110);">alicja.fal@op.pl</text>
                </g>
                <g transform="matrix(0.724831,0,0,1.23863,2081.87,-3855.52)">
                    <text x="575.658px" y="3511.24px" style="font-family:'Lato-Bold', 'Lato', sans-serif;font-weight:700;font-size:64px;fill:rgb(222,219,246);">@</text>
                </g>
                <g transform="matrix(0.245391,0,0,0.419338,2386.13,-916.969)">
                    <path d="M542.899,3704C538.284,3704 534.542,3700.26 534.542,3695.64C534.542,3674.95 534.542,3623 534.542,3623C534.542,3623 528.687,3623 523.943,3623C520.661,3623 518,3620.34 518,3617.06C518,3614.99 518,3612.57 518,3610.1C518,3606.09 519.591,3602.25 522.422,3599.42C525.253,3596.59 529.093,3595 533.097,3595C533.994,3595 534.542,3595 534.542,3595L534.542,3570.63C534.542,3554.26 547.807,3541 564.17,3541L579.903,3541C588.241,3541 595,3547.76 595,3556.1C595,3559.72 595,3563.29 595,3565.91C595,3566.99 594.569,3568.04 593.802,3568.8C593.035,3569.57 591.995,3570 590.911,3570C586.958,3570 580.886,3570 576.136,3570C572.195,3570 569,3573.2 569,3577.14C569,3584.53 569,3595 569,3595C569,3595 573.186,3595 578.199,3595C582.483,3595 586.565,3596.82 589.428,3600.01C592.292,3603.19 593.666,3607.45 593.21,3611.71C592.979,3613.86 592.758,3615.93 592.569,3617.69C592.245,3620.71 589.697,3623 586.66,3623C579.865,3623 569,3623 569,3623L569,3695.64C569,3700.26 565.259,3704 560.643,3704C555.259,3704 548.284,3704 542.899,3704Z" style="fill:rgb(222,219,246);"/>
                </g>
                <g transform="matrix(0.441405,0.253841,-0.148544,0.754299,2681.59,-2275.56)">
                    <path d="M854,3664C845.627,3689.12 885,3725 910,3722C912.979,3721.64 920,3712 920,3710C920,3705.75 909,3697 905,3697C901.838,3697 895,3705 894,3705C887.763,3705 870,3684 870.5,3681C870.684,3679.9 878.75,3674.83 878,3670.66C877.25,3666.49 870,3657 866,3656C864.06,3655.51 855,3661 854,3664Z" style="fill:rgb(222,219,246);"/>
                </g>
                <g transform="matrix(0.193867,0,0,0.331291,2384.6,-622.481)">
                    <circle cx="569.997" cy="3580" r="15.997" style="fill:rgb(112,101,215);"/>
                </g>
                <g transform="matrix(0.193867,0,0,0.331291,2384.6,-491.478)">
                    <circle cx="569.997" cy="3580" r="15.997" style="fill:rgb(112,101,215);"/>
                </g>
                <g transform="matrix(0.182458,0,0,0.311795,2395.11,-692.342)">
                    <circle cx="569.997" cy="3580" r="15.997" style="fill:rgb(112,101,215);"/>
                </g>
                <g transform="matrix(0.0880842,0,0,0.143932,2449.4,40.6632)">
                    <circle cx="569.997" cy="3580" r="15.997" style="fill:rgb(112,101,215);"/>
                </g>
                <g transform="matrix(0.0880842,0,0,0.143932,2449.4,171.666)">
                    <circle cx="569.997" cy="3580" r="15.997" style="fill:rgb(112,101,215);"/>
                </g>
            </g>
        </g>
    </g>
</svg>
