<?xml version="1.0" encoding="UTF-8" standalone="no"?>
<!DOCTYPE svg PUBLIC "-//W3C//DTD SVG 1.1//EN" "http://www.w3.org/Graphics/SVG/1.1/DTD/svg11.dtd">
<svg width="100%" height="100%" viewBox="0 0 1928 629" version="1.1" xmlns="http://www.w3.org/2000/svg" xmlns:xlink="http://www.w3.org/1999/xlink" xml:space="preserve" xmlns:serif="http://www.serif.com/" style="fill-rule:evenodd;clip-rule:evenodd;stroke-linecap:round;stroke-linejoin:round;stroke-miterlimit:1.5;">
    <g transform="matrix(1,0,0,1,4.87987,-3243.27)">
        <g transform="matrix(1,0,0,0.585185,-1970,3240)">
            <g id="contact_background" transform="matrix(1,0,0,1,-1.87987,-18.7975)">
                <g transform="matrix(1,0,0,1.70886,1973,-5567.47)">
                    <path d="M1920.88,3304.87C1831.98,3283.43 1710.1,3257.16 1552.12,3283C1389.51,3309.59 1129.17,3367.86 960,3369C790.827,3370.14 694.077,3313.32 430.077,3309.98C269.665,3307.96 -1,3365.87 -1,3365.87L-1,3872L1920.88,3871.87L1920.88,3304.87Z" style="fill:rgb(241,251,254);"/>
                </g>
                <g transform="matrix(1,0,0,1.70886,1972,-5517.91)">
                    <path d="M1920,3470C1792.1,3362.56 1577.1,3317.28 1445.12,3324.12C1280.57,3332.65 1129.17,3383.86 960,3385C790.827,3386.14 696.077,3304.32 430.077,3319.98C269.93,3329.41 0,3420 0,3420L-1,3872L1921.88,3872L1920,3470Z" style="fill:white;"/>
                </g>
                <g transform="matrix(1,0,0,1.70886,1971.88,-5517.91)">
                    <path d="M1920,3594.99C1650.16,3475.29 1332.23,3502.06 996.956,3547.03C781,3576 376,3386 0.12,3552.29C-0.02,3570.84 -0.344,3672.2 0,3695C411,3554 821,3713 1039.21,3697.87C1407.78,3672.32 1745.69,3674.95 1921.88,3759C1923.53,3670.2 1922.95,3640.46 1920,3594.99Z" style="fill:rgb(247,253,254);"/>
                </g>
                <g transform="matrix(1,0,0,1.70886,1966.61,-5301.68)">
                    <path d="M1920,3378C1792.1,3270.56 1577.1,3229.28 1445.12,3236.12C1280.57,3244.65 1133,3284.19 963.829,3285.33C794.656,3286.48 699.389,3210.67 433.389,3226.33C273.242,3235.77 14.389,3336.33 14.389,3336.33" style="fill:none;stroke:rgb(241,251,254);stroke-width:15px;stroke-dasharray:180,180,0,0;"/>
                </g>
                <g transform="matrix(1,0,0,1.70886,1969,-5550.38)">
                    <path d="M1920,3470C1792.1,3362.56 1577.1,3317.28 1445.12,3324.12C1280.57,3332.65 1129.17,3383.86 960,3385C790.827,3386.14 696,3292.69 430,3308.36C269.853,3317.79 0,3376.87 0,3376.87" style="fill:none;stroke:rgb(222,247,217);stroke-width:2px;"/>
                </g>
                <g transform="matrix(1,0,0,1.70886,1972,-5172.08)">
                    <path d="M1920,3470C1792.1,3362.56 1577.1,3317.28 1445.12,3324.12C1375.6,3327.72 1246.8,3365.32 1062.11,3401.43C809.63,3450.8 480.88,3288.62 0,3450.62" style="fill:none;stroke:rgb(222,247,217);stroke-width:2px;"/>
                </g>
                <g transform="matrix(1,0,0,1.70886,1969,-5572.59)">
                    <path d="M1922.88,3373.87C1759,3314.87 1577.1,3293.28 1445.12,3300.12C1280.57,3308.65 1129.17,3368.86 960,3370C790.827,3371.14 628,3291.87 424,3304.87C263.9,3315.07 0,3377.87 0,3377.87" style="fill:none;stroke:rgb(222,247,217);stroke-width:3px;"/>
                </g>
                <g transform="matrix(1,0,0,1.70886,1969,-5197.63)">
                    <path d="M1922.88,3402.38C1766.88,3320.57 1577.1,3293.28 1445.12,3300.12C1372.55,3303.88 1225.66,3347.98 1021.35,3386.42C762.369,3435.14 507.88,3215.57 2,3411.68" style="fill:none;stroke:rgb(241,251,239);stroke-width:3px;"/>
                </g>
                <g transform="matrix(1,0,0,1.70886,1943,-5596.52)">
                    <path d="M1947,3347.99C1858.1,3326.55 1710,3295.87 1552.12,3292C1387.4,3287.96 1129.17,3367.86 960,3369C790.827,3370.14 693.442,3291.38 430.077,3309.98C276,3320.87 26,3378.87 26,3378.87" style="fill:none;stroke:rgb(186,238,175);stroke-width:4px;"/>
                </g>
                <g transform="matrix(1,0,0,1.70886,1943,-5221.55)">
                    <path d="M1947,3347.99C1673.96,3209.83 1426.06,3278.21 1065.89,3339.8C799.328,3385.38 505.88,3200.57 26,3378.87" style="fill:none;stroke:rgb(241,251,239);stroke-width:4px;"/>
                </g>
            </g>
        </g>
    </g>
</svg>
