<?xml version="1.0" encoding="UTF-8" standalone="no"?>
<!DOCTYPE svg PUBLIC "-//W3C//DTD SVG 1.1//EN" "http://www.w3.org/Graphics/SVG/1.1/DTD/svg11.dtd">
<svg width="100%" height="100%" viewBox="0 0 53 54" version="1.1" xmlns="http://www.w3.org/2000/svg" xmlns:xlink="http://www.w3.org/1999/xlink" xml:space="preserve" xmlns:serif="http://www.serif.com/" style="fill-rule:evenodd;clip-rule:evenodd;stroke-linejoin:round;stroke-miterlimit:2;">
    <g transform="matrix(1,0,0,1,-522,-3640)">
        <g transform="matrix(1,0,0,0.585185,-1970,3240)">
            <g id="contact_info_tel">
                <g transform="matrix(0.385239,0,0,0.65832,2245.28,-1609.61)">
                    <path d="M777,3522.67C777,3514.53 773.769,3506.73 768.018,3500.98C762.267,3495.23 754.467,3492 746.333,3492C728.864,3492 707.183,3492 690.393,3492C675.032,3492 662.04,3503.37 659.999,3518.59C657.306,3538.68 653.586,3566.42 650.658,3588.26C649.483,3597.02 652.149,3605.87 657.972,3612.53C663.795,3619.18 672.209,3623 681.053,3623C701.398,3623 726.785,3623 746.333,3623C763.27,3623 777,3609.27 777,3592.33L777,3522.67Z" style="fill:rgb(112,101,215);"/>
                </g>
                <g transform="matrix(0.441405,0.253841,-0.148544,0.754299,2681.59,-2275.56)">
                    <path d="M854,3664C845.627,3689.12 885,3725 910,3722C912.979,3721.64 920,3712 920,3710C920,3705.75 909,3697 905,3697C901.838,3697 895,3705 894,3705C887.763,3705 870,3684 870.5,3681C870.684,3679.9 878.75,3674.83 878,3670.66C877.25,3666.49 870,3657 866,3656C864.06,3655.51 855,3661 854,3664Z" style="fill:rgb(222,219,246);"/>
                </g>
                <g transform="matrix(0.193867,0,0,0.331291,2384.6,-491.478)">
                    <circle cx="569.997" cy="3580" r="15.997" style="fill:rgb(112,101,215);"/>
                </g>
                <g transform="matrix(0.0880842,0,0,0.143932,2449.4,171.666)">
                    <circle cx="569.997" cy="3580" r="15.997" style="fill:rgb(112,101,215);"/>
                </g>
            </g>
        </g>
    </g>
</svg>
