<svg viewBox="0 0 366 240" xmlns="http://www.w3.org/2000/svg" fill-rule="evenodd" clip-rule="evenodd" stroke-linejoin="round" stroke-miterlimit="2"><path d="M15.949 61.758c-5.066 14.047-18.931 47.817-6.034 85.421 6.14 17.903 27.148 35.455 44.372 43.756 36.627 17.65 89.504 24.091 128.397 24.796 0 0 7.324-.205 7.147 4.962-.18 5.231-7.127 6.405-12.5 8.098-20.841 6.565-84.892 13.529-138.273 10.139 47.766-.307 52.755-2.196 76.489-5.367 17.705-2.364 35.302-5.614 52.484-10.262l.234-.064a479.68 479.68 0 01-2.679-.11c-35.058-1.575-79.601-9.206-111.579-23.642-21.705-9.798-43.21-25.787-49.664-50.039-6.364-23.915-6.497-51.278 11.606-87.688z" fill="#990065"/><path d="M166.96 224.631c-.641-4.94 12.888-11.308 33.762-14.275 72.91-10.367 164.579-21.667 164.579-21.667s-102.941 23.913-161.424 37.214c-21.032 4.783-36.283 3.613-36.917-1.272zm9.908-1.862c-.373-2.104 7.694-5.299 18.005-7.129 10.31-1.83 18.984-1.607 19.358.498.374 2.104-7.694 5.299-18.004 7.129-10.311 1.83-18.985 1.607-19.359-.498z" fill="#990065"/><g font-family="'NoteToSelf-Regular','Note To Self'" fill="#fd006a"><text x="48.422" y="54.517" font-size="69.932">Szmatki</text><text x="43.136" y="110.086" font-size="52.449">kwiatki</text><text x="362.532" y="495.979" font-size="185.219" transform="matrix(.37756 0 0 .37756 -59.805 -14.633)">i</text><text x="456.438" y="495.979" font-size="138.914" transform="matrix(.37756 0 0 .37756 -59.805 -14.633)">bukiety</text></g></svg>