<svg viewBox="0 0 366 240" xmlns="http://www.w3.org/2000/svg" fill-rule="evenodd" clip-rule="evenodd" stroke-linejoin="round" stroke-miterlimit="2"><path d="M15.952 61.753c-5.067 14.048-18.926 47.818-6.035 85.415 6.137 17.913 27.151 35.465 44.376 43.76 36.626 17.655 89.504 24.099 128.395 24.8 0 0 7.322-.203 7.143 4.961-.181 5.233-7.12 6.403-12.498 8.094-20.836 6.566-84.888 13.536-138.268 10.144 47.767-.31 52.748-2.194 76.486-5.366 17.705-2.364 35.298-5.62 52.484-10.261l.231-.07c-.886-.034-1.784-.072-2.681-.109-35.057-1.57-79.596-9.209-111.58-23.637-21.696-9.806-43.208-25.795-49.66-50.044-6.367-23.915-6.499-51.277 11.607-87.687z" fill="#990065"/><path d="M166.96 224.631c-.641-4.94 12.888-11.308 33.762-14.275 72.91-10.367 164.579-21.667 164.579-21.667s-102.941 23.913-161.424 37.214c-21.032 4.783-36.283 3.613-36.917-1.272zm9.908-1.862c-.373-2.104 7.694-5.299 18.005-7.129 10.31-1.83 18.984-1.607 19.358.498.374 2.104-7.694 5.299-18.004 7.129-10.311 1.83-18.985 1.607-19.359-.498z" fill="#990065"/><path d="M62.478 4.026c.91-.28 1.888-.42 3.007-.42 1.609 0 2.728.21 3.357.7.35.28.84.56 1.469.77.35.069.839.559 1.398 1.328.56.839.84 1.468.84 1.888 0 .35-.14.7-.42 1.049-.35.35-.63.56-.98.56-.838 0-1.677-.42-2.587-1.33-1.328-1.328-2.727-2.027-4.056-2.027-.35 0-.699.07-1.049.28-.42.21-.769.908-1.049 2.097-.35 1.26-.49 2.518-.49 3.917 0 1.049.07 1.888.28 2.587.07.14.35 1.539.91 4.196.42 2.098 1.258 4.126 2.447 6.154 1.609 2.797 3.287 4.825 4.966 6.084.909.7 1.818 1.678 2.727 2.867 1.329 1.818 2.308 3.567 2.867 5.385.56 1.678.84 3.776.84 6.224 0 1.818-.14 3.217-.42 4.126-.35.979-1.05 2.378-2.098 4.196-.91 1.468-1.819 2.657-2.728 3.427-.909.769-2.237 1.608-4.056 2.517-.909.49-1.538.77-2.028.84-.56.07-1.398.14-2.727.14-1.748 0-3.427-.28-5.035-.91-2.308-.91-3.916-2.587-4.825-4.895-.49-1.329-.7-2.238-.7-2.728 0-.839.42-1.258 1.259-1.258h.35c.49.07 1.049.629 1.538 1.748.7 1.259 1.329 2.168 1.958 2.727.56.49.98.84 1.399.91.35.14 1.189.21 2.517.28l1.469.07c.91 0 1.818-.21 2.587-.63 1.679-.98 2.588-3.357 2.798-7.133v-1.05c0-4.265-1.329-7.902-4.056-10.769-1.399-1.608-2.448-2.937-3.077-3.916-.35-.56-.98-1.399-1.749-2.588-.839-1.118-1.468-1.958-1.818-2.587-.35-.56-.839-1.399-1.329-2.448-.559-1.049-1.049-2.098-1.398-3.217-.49-1.398-.7-3.146-.7-5.314 0-3.357.49-6.084 1.539-8.112 1.469-2.798 3.706-4.686 6.853-5.735zM90.241 22.069c4.686-.7 9.022-1.05 13.008-1.05h1.119c.909 0 1.398.21 1.538.56.21.42.07 1.049-.35 1.958-.21.49-.629 1.609-1.258 3.357-.63 1.748-1.05 2.797-1.26 3.287-.489.839-1.538 3.147-3.286 6.853-1.748 3.776-2.587 5.734-2.587 5.874 0 .07-.28.91-.91 2.378-.629 1.469-1.048 2.448-1.258 2.797-.07.21-.14.35-.14.42 0 .49.979.7 2.937.7 3.427 0 5.175.419 5.175 1.188 0 .28-.21.63-.63 1.049-.419.42-1.328.7-2.657.84-1.398.209-4.336.349-8.811.489-1.05.07-2.168.07-3.357.07s-1.958-.21-2.308-.56c-.35-.35-.56-.839-.56-1.398 0-.56.21-1.12.56-1.609a23.065 23.065 0 0 0 2.658-5.594c.21-.77.839-2.098 1.818-3.987.979-1.888 1.818-3.216 2.448-4.126.699-.979 2.377-3.916 4.965-8.811.35-.63.49-1.049.49-1.259 0-.35-.35-.63-1.05-.839-.7-.14-2.238-.35-4.615-.56-1.19-.07-1.958-.28-2.378-.489-.42-.21-.63-.56-.63-1.049 0-.21.42-.42 1.33-.49zM114.927 21.51c.35-.28.84-.42 1.469-.42.91 0 1.818.21 2.727.699.91.49 1.399.979 1.609 1.538.21.77.42 2.028.56 3.777.209 1.958.349 2.937.419 2.937.21 0 .49-.28.839-.84.49-.629 1.399-1.678 2.867-3.076 1.399-1.469 2.238-2.238 2.588-2.448.49-.21 1.049-.35 1.748-.35.56 0 .84.07.84.28 0 .42.908.77 2.657 1.049.769.14 1.748.56 2.867 1.259 1.049.7 1.818 1.329 2.168 1.958.49.77.909 1.608 1.258 2.517.35.98.63 1.469.84 1.469.21 0 .909-.49 2.028-1.538 1.049-.98 2.028-1.679 2.797-2.098.84-.42 1.958-.77 3.287-.98.839-.14 1.398-.21 1.748-.21.42 0 .91.14 1.539.49.839.49 1.468.7 1.818.7 1.468 0 2.657.769 3.566 2.377.91 1.609 1.469 3.217 1.609 4.756.28 3.147.769 6.294 1.468 9.3.14.56.21 1.26.21 2.029 0 .769-.07 1.608-.14 2.517-.14.91-.28 1.958-.49 3.077-.21 1.189-.279 1.888-.349 2.238-.21 1.748-.7 3.077-1.329 3.986-1.258 1.748-2.727 2.658-4.475 2.658-.91 0-1.609-.28-2.168-.84-.77-.909-1.189-1.818-1.189-2.867 0-.28.07-.63.28-1.119.49-.909.909-3.357 1.258-7.482.35-4.057.56-7.973.56-11.819 0-2.028-.14-3.567-.49-4.476-.35-.909-.909-1.538-1.818-2.028-.49-.28-.839-.42-1.119-.42-.14 0-.7.21-1.748.56-1.259.49-2.727 1.539-4.476 3.287-2.028 2.028-3.496 3.986-4.335 5.804-.77 1.819-1.33 4.336-1.539 7.553-.28 3.706-.77 5.595-1.538 5.595-.21 0-.49-.14-.98-.42-.629-.42-.979-1.259-.979-2.518 0-.42.07-.699.21-.839.21-.21.35-3.007.35-8.322 0-1.888-.07-2.867-.14-3.077-.14-.21-.28-.909-.42-2.098-.21-1.188-.35-1.888-.42-2.098-.209-.629-.279-1.258-.279-1.888 0-.769-.28-1.608-.84-2.517-.559-.91-1.188-1.469-1.817-1.749-.35-.21-.7-.28-.98-.28s-.699.21-1.188.56c-.77.49-1.749 1.609-2.797 3.217-1.12 1.678-1.959 3.287-2.448 4.755-.63 1.749-.91 3.637-.91 5.665 0 1.958.07 3.986.28 6.154.35 3.496.56 6.014.56 7.553 0 2.377-.49 4.126-1.399 5.314-.49.56-1.119.84-1.888.84-.839 0-1.538-.42-2.168-1.19-.63-.769-.979-1.887-1.189-3.286-.14-.7-.21-1.259-.21-1.748l.07-.7c0-.21-.07-1.119-.28-2.727-.768-4.476-1.258-8.462-1.468-12.028-.35-6.224-.56-9.93-.56-11.19 0-3.776.49-6.014 1.47-6.783zM187.516 24.586c-.42-.21-1.119-.35-2.028-.35-2.517 0-4.755.56-6.713 1.749-2.378 1.398-3.567 4.825-3.567 10.21 0 1.818.28 3.217.84 4.196.489 1.049 1.468 1.958 2.867 2.727.909.49 2.307.77 4.266.77 4.405 0 7.342-1.26 8.95-3.777.21-.35.35-.7.35-1.189 0-.49-.07-1.259-.28-2.238-.419-2.937-.699-4.965-.838-6.014-.21-2.308-.49-3.566-.7-3.706-.21-.07-.7-.49-1.468-1.12-.84-.698-1.399-1.118-1.679-1.258zm4.546-3.077a5.056 5.056 0 0 1 2.098-2.098c.909-.49 1.538-.7 1.818-.7.35 0 1.189.42 2.518 1.26 1.258.909 2.028 1.538 2.307 2.028.42.629.63 2.517.63 5.734 0 5.175-.42 9.58-1.19 13.287-.419 1.888-.628 3.637-.628 5.105 0 1.189-.14 1.958-.35 2.448-.14.49-.56.7-1.119.7-.35 0-.7-.21-1.049-.56-.35-.28-.49-.63-.49-.98s-.21-.699-.629-1.048c-.42-.42-.77-.98-1.119-1.609l-.49-.979-.978.84c-.63.559-1.26 1.258-1.889 2.027-.49.63-1.398 1.33-2.727 2.028a15.786 15.786 0 0 1-4.056 1.469c-1.189.21-2.587.35-4.266.35-2.098 0-3.776-.14-5.105-.49-4.965-1.329-7.413-5.175-7.413-11.609l.07-1.468c.28-4.826 1.609-8.462 4.056-11.05.49-.489 1.19-1.048 2.168-1.818.98-.699 1.609-1.049 1.818-1.049.21 0 .63-.21 1.4-.63.768-.419 1.957-.768 3.566-1.048 1.608-.28 3.077-.42 4.405-.42 1.05 0 1.679.07 1.888.28.35.28 1.05.63 1.959.98.909.419 1.538.629 1.818.629h.07c.21-.21.56-.77.909-1.609zM223.043 4.586c.769-.49 1.398-.77 1.958-.77.35 0 .769.14 1.258.35.63.35 1.05.7 1.26 1.049.209.42.279 1.189.279 2.378 0 .35-.07 1.398-.14 3.077-.14 2.447-.28 4.545-.42 6.224-.07.629-.07.979 0 1.188.07.21.28.35.63.49.28.07.56.14.909.14.56 0 1.259-.07 2.098-.21 1.958-.21 3.427-.35 4.336-.35 1.468 0 2.727.21 3.636.7 1.05.56 1.539 1.049 1.539 1.468 0 .7-.98 1.05-2.868 1.05-.629 0-1.049 0-1.398-.07-.28-.07-.84-.07-1.609-.07-4.405 0-6.853.21-7.342.699-.07.07-.14 1.328-.14 3.776 0 4.266.07 7.483.28 9.51.28 2.798.489 6.085.699 9.791.28 5.315.49 8.252.63 8.882.139.769.209 1.818.209 3.077 0 2.447-.21 4.126-.56 4.965-.629 1.468-1.398 2.168-2.447 2.168-.77 0-1.539-.35-2.448-1.12-.77-.629-1.259-1.328-1.468-2.097-.28-.77-.49-2.308-.7-4.616-.28-2.587-.49-4.335-.63-5.105-.139-.769-.279-5.944-.489-15.385l-.21-14.196h-3.566c-2.168 0-3.776.07-4.825.28-.91.21-1.609.07-1.958-.35-.49-.56-.63-1.119-.28-1.748.35-.63 2.517-.98 6.434-1.05l4.126-.07.21-.908c.07-.28.28-1.888.559-4.895.35-4.686 1.189-7.413 2.448-8.252zM251.224.95c.14-.07.35-.07.63-.07.35 0 1.398.209 3.077.629 1.119.35 1.748.699 1.818 1.188v1.19c0 .629.14 1.398.42 2.377.559 2.238.909 7.623 1.118 16.154.07 5.315.21 8.042.35 8.182h.07c.21 0 .56-.28 1.049-.769.49-.49.84-.979 1.049-1.469.21-.49 1.748-2.167 4.546-4.965a69.161 69.161 0 0 1 3.496-3.287c.63-.49 1.12-.699 1.539-.699h.21c1.048.07 1.538.49 1.538 1.189 0 .91-.77 1.958-2.238 3.007-.839.63-1.958 1.678-3.287 3.007a69.063 69.063 0 0 0-3.426 3.707c-.14.21-.35.42-.56.769-.28.35-.49.63-.7.839-.209.21-.349.42-.419.49-.35.489-.56.839-.56.979 0 .21.21.42.7.769.49.35 1.12 1.049 1.888 2.168a75.813 75.813 0 0 0 1.26 1.958c.698.979 1.538 2.238 2.587 3.846 1.049 1.608 1.818 2.867 2.377 3.706 1.609 2.378 2.588 3.987 3.007 4.826 1.19 2.238 2.308 3.846 3.287 4.825.7.7 1.05 1.469 1.05 2.308 0 .42-.07.77-.28 1.119-.35.63-.77.909-1.33.909-.699 0-1.328-.49-1.957-1.539-.56-.979-.98-1.608-1.33-1.818-.419-.35-.628-.63-.628-.909 0-.21-.28-.63-.77-1.259-.42-.56-1.189-1.888-2.238-3.916a56.18 56.18 0 0 0-2.867-5.035c-.42-.63-.909-1.539-1.608-2.588-.56-1.049-1.189-1.888-1.679-2.587-.839-1.119-1.468-1.958-1.958-2.518-.769-1.049-1.328-1.538-1.538-1.538-.28 0-.42.63-.42 1.888 0 1.119 0 2.098.07 2.937.21 5.455.35 9.371.35 11.679 0 3.427-.21 5.944-.56 7.413-.35 1.538-1.049 2.587-2.028 3.077-.49.35-.979.49-1.468.49-1.189 0-2.238-.98-3.147-2.938-.49-1.119-.84-2.518-1.05-4.266-.279-1.748-.419-4.755-.629-9.091-.07-1.189-.489-8.462-1.328-21.889-.21-2.797-.28-4.335-.28-4.545 0-1.469-.07-4.196-.21-8.322-.07-3.567-.14-5.455-.14-5.665 0-1.468.14-2.587.42-3.286.49-1.33 1.399-2.168 2.727-2.658zM289.967 23.257c.07-.21.35-.28.7-.28.49 0 .979.14 1.468.49.7.49 1.329 1.609 1.888 3.427.56 1.888.84 3.566.84 5.175v.839c-.07 1.259-.28 4.126-.49 8.602-.21 4.545-.35 7.133-.35 7.902 0 1.538-.07 3.287-.28 5.315-.21 2.238-.489 3.706-.769 4.406-.35.769-.839 1.118-1.608 1.118-.84 0-1.748-.559-2.797-1.748-1.05-1.119-1.888-2.378-2.378-3.776-.91-2.658-1.329-8.252-1.329-16.854 0-3.357.14-5.664.35-6.923.49-2.797.91-4.616 1.259-5.455.35-.839 1.049-1.398 1.958-1.608.909-.28 1.468-.49 1.538-.63zm-.629-14.196c.35-.21.63-.35.84-.35.349 0 .978.28 1.957.84 1.19.63 2.028 1.258 2.518 1.818.49.63.7 1.469.7 2.448v.49c-.07.908-.77 1.817-2.029 2.726-1.189.91-2.378 1.4-3.496 1.4-.98 0-1.889-.49-2.728-1.54-.77-.978-1.189-2.097-1.189-3.356 0-.63.14-1.259.42-1.888.35-.7 1.329-1.539 3.007-2.588z" fill="#fd006a" fill-rule="nonzero"/><g><path d="M48.276 69.91c.105-.052.262-.052.472-.052.262 0 1.049.157 2.308.472.839.262 1.311.524 1.363.891v.892c0 .472.105 1.049.315 1.783.42 1.679.682 5.717.84 12.116.052 3.986.157 6.032.262 6.136h.052c.157 0 .42-.21.787-.576.367-.368.63-.735.787-1.102.157-.367 1.31-1.626 3.409-3.724a51.87 51.87 0 0 1 2.622-2.465c.472-.367.84-.524 1.154-.524h.157c.787.052 1.154.367 1.154.891 0 .682-.577 1.469-1.678 2.256-.63.472-1.469 1.258-2.465 2.255a51.797 51.797 0 0 0-2.57 2.78c-.105.157-.262.314-.42.577-.21.262-.367.472-.524.629-.158.157-.263.315-.315.367-.262.367-.42.63-.42.734 0 .158.158.315.525.577.367.263.84.787 1.416 1.626.525.84.84 1.311.944 1.469a86.623 86.623 0 0 1 1.94 2.885c.787 1.206 1.364 2.15 1.784 2.78 1.206 1.783 1.94 2.989 2.255 3.618.892 1.679 1.731 2.885 2.465 3.62.525.524.787 1.1.787 1.73 0 .315-.052.577-.21.84-.262.471-.577.681-.996.681-.525 0-.997-.367-1.469-1.154-.42-.734-.734-1.206-.996-1.363-.315-.263-.472-.472-.472-.682 0-.158-.21-.472-.577-.944-.315-.42-.892-1.416-1.679-2.937a42.134 42.134 0 0 0-2.15-3.777c-.315-.472-.682-1.154-1.206-1.94-.42-.787-.892-1.417-1.26-1.941-.629-.84-1.1-1.469-1.468-1.888-.577-.787-.996-1.154-1.154-1.154-.21 0-.314.472-.314 1.416 0 .84 0 1.574.052 2.203.157 4.09.262 7.028.262 8.759 0 2.57-.157 4.458-.42 5.56-.261 1.153-.786 1.94-1.52 2.307a1.848 1.848 0 0 1-1.102.367c-.891 0-1.678-.734-2.36-2.202-.367-.84-.63-1.889-.787-3.2-.21-1.311-.314-3.566-.472-6.818-.052-.892-.367-6.347-.996-16.417-.158-2.098-.21-3.252-.21-3.409 0-1.101-.052-3.147-.157-6.241-.053-2.675-.105-4.091-.105-4.249 0-1.101.105-1.94.314-2.465.368-.996 1.05-1.626 2.046-1.993zM73.556 83.652l.263-.787 1.73.105c1.731.105 2.833.734 3.357 1.836.158.367.472 1.31.892 2.832.42 1.52.63 2.465.63 2.727l.261 1.364c.053.367.158.734.21.996.525 2.256 1.154 5.14 1.836 8.55.21.996.367 1.468.472 1.468.157 0 .997-.839 2.413-2.57 1.416-1.678 2.307-2.832 2.622-3.461.42-.84.787-1.417 1.154-1.679.315-.262.84-.472 1.521-.577.577-.052.944-.105 1.206-.105.997 0 1.784.263 2.465.787.682.525 1.417 1.521 2.308 2.937.734 1.207 1.207 1.836 1.416 1.888h.053c.21 0 .472-.367.839-1.101.315-.682.682-1.521 1.049-2.518.367-.944.63-1.573.787-1.888.157-.262.314-.839.577-1.836.052-.21.157-.681.367-1.416.21-.681.367-1.258.472-1.678.052-.367.157-.892.262-1.573.105-.682.157-1.26.157-1.836.053-.997.105-1.626.158-1.94.052-.263.157-.525.42-.683.366-.262.734-.42.996-.42.682 0 .996.473.996 1.47 0 .157-.052.419-.105.839-.052.104-.104.367-.157.839-.105.472-.21.996-.315 1.573-.104.577-.21 1.05-.262 1.521-.314 1.836-1.049 4.353-2.255 7.5-1.102 3.147-1.678 5.036-1.678 5.612 0 .577-.158 1.05-.473 1.469-.314.367-.681.577-1.153.577-.735-.052-1.469-.315-2.256-.787-.786-.472-1.888-1.416-3.304-2.727-1.678-1.626-2.78-2.465-3.304-2.465-.315 0-.63.21-.892.682-.367.524-1.206 1.52-2.465 3.042-1.259 1.52-2.15 2.622-2.727 3.199-.682.734-1.364 1.101-1.941 1.101s-1.154-.262-1.73-.839c-.578-.524-1.05-1.468-1.47-2.832a28.172 28.172 0 0 0-1.048-2.727c-.263-.472-.892-2.518-1.941-6.137-1.101-3.881-1.678-5.874-1.73-5.979-.473-1.573-.735-2.78-.735-3.671 0-.368 0-.577.052-.682zM114.886 86.641c.053-.157.262-.21.525-.21.367 0 .734.105 1.101.368.525.367.997 1.206 1.416 2.57.42 1.416.63 2.675.63 3.88v.63c-.053.944-.21 3.095-.367 6.451-.158 3.41-.263 5.35-.263 5.927 0 1.154-.052 2.465-.21 3.986-.157 1.679-.367 2.78-.576 3.305-.263.577-.63.839-1.207.839-.63 0-1.311-.42-2.098-1.311-.786-.84-1.416-1.784-1.783-2.833-.682-1.993-.997-6.189-.997-12.64 0-2.517.105-4.248.263-5.192.367-2.098.682-3.462.944-4.091.262-.63.787-1.05 1.468-1.207.682-.21 1.102-.367 1.154-.472zm-.472-10.647c.262-.157.472-.262.63-.262.262 0 .734.21 1.468.63.892.471 1.521.943 1.888 1.363.367.472.525 1.101.525 1.836v.367c-.053.682-.577 1.363-1.521 2.045-.892.682-1.783 1.05-2.623 1.05-.734 0-1.416-.368-2.045-1.155-.577-.734-.892-1.573-.892-2.517 0-.472.105-.944.315-1.416.262-.525.996-1.154 2.255-1.94zM139.223 87.638c-.315-.158-.84-.262-1.521-.262-1.889 0-3.567.42-5.036 1.31-1.783 1.05-2.674 3.62-2.674 7.658 0 1.364.21 2.413.629 3.147.367.787 1.101 1.469 2.15 2.046.682.367 1.731.577 3.2.577 3.304 0 5.507-.944 6.713-2.832.158-.263.262-.525.262-.892s-.052-.944-.21-1.678a540.521 540.521 0 0 1-.629-4.511c-.157-1.73-.367-2.675-.524-2.78-.158-.052-.525-.367-1.102-.84-.629-.524-1.049-.838-1.258-.943zm3.409-2.308a3.792 3.792 0 0 1 1.573-1.573c.682-.368 1.154-.525 1.364-.525.262 0 .892.315 1.888.944.944.682 1.521 1.154 1.73 1.521.316.472.473 1.888.473 4.301 0 3.881-.315 7.186-.892 9.965-.314 1.416-.472 2.728-.472 3.83 0 .89-.105 1.468-.262 1.835-.105.367-.42.524-.84.524-.261 0-.524-.157-.786-.42a.916.916 0 0 1-.367-.734c0-.262-.157-.524-.472-.786-.315-.315-.577-.735-.84-1.207l-.366-.734-.735.63c-.472.42-.944.944-1.416 1.52-.367.473-1.049.997-2.045 1.522a11.84 11.84 0 0 1-3.042 1.101c-.892.157-1.941.262-3.2.262-1.573 0-2.832-.105-3.829-.367-3.723-.996-5.56-3.881-5.56-8.706l.053-1.102c.21-3.619 1.207-6.346 3.042-8.287.367-.367.892-.787 1.626-1.364.735-.524 1.207-.786 1.364-.786.157 0 .472-.158 1.049-.472.577-.315 1.468-.577 2.675-.787 1.206-.21 2.308-.315 3.304-.315.787 0 1.259.053 1.416.21.262.21.787.472 1.469.734.682.315 1.154.472 1.363.472h.053c.157-.157.42-.577.682-1.206zM165.866 72.637c.577-.367 1.05-.577 1.469-.577.262 0 .577.105.944.263.472.262.787.524.944.786.157.315.21.892.21 1.784 0 .262-.053 1.049-.105 2.307-.105 1.836-.21 3.41-.315 4.668-.052.472-.052.735 0 .892.053.157.21.262.472.367.21.053.42.105.682.105.42 0 .944-.052 1.574-.157 1.468-.158 2.57-.262 3.252-.262 1.1 0 2.045.157 2.727.524.787.42 1.154.787 1.154 1.101 0 .525-.735.787-2.15.787-.473 0-.787 0-1.05-.052-.21-.053-.629-.053-1.206-.053-3.304 0-5.14.158-5.507.525-.053.052-.105.996-.105 2.832 0 3.2.052 5.612.21 7.133.21 2.098.367 4.563.524 7.343.21 3.986.367 6.189.472 6.661.105.577.158 1.364.158 2.308 0 1.835-.158 3.094-.42 3.724-.472 1.101-1.049 1.626-1.836 1.626-.577 0-1.154-.263-1.835-.84-.577-.472-.944-.996-1.102-1.573-.21-.577-.367-1.731-.524-3.462-.21-1.94-.367-3.252-.472-3.829-.105-.576-.21-4.458-.367-11.538l-.158-10.647h-2.675c-1.626 0-2.832.052-3.619.21-.682.157-1.206.052-1.468-.263-.367-.42-.472-.84-.21-1.311.262-.472 1.888-.734 4.825-.787l3.095-.052.157-.682c.053-.21.21-1.416.42-3.672.262-3.514.891-5.56 1.835-6.189zM187.004 69.91c.105-.052.262-.052.472-.052.262 0 1.049.157 2.308.472.839.262 1.311.524 1.363.891v.892c0 .472.105 1.049.315 1.783.42 1.679.682 5.717.84 12.116.052 3.986.157 6.032.262 6.136h.052c.157 0 .42-.21.787-.576.367-.368.63-.735.787-1.102.157-.367 1.31-1.626 3.409-3.724a51.87 51.87 0 0 1 2.622-2.465c.472-.367.84-.524 1.154-.524h.157c.787.052 1.154.367 1.154.891 0 .682-.577 1.469-1.678 2.256-.63.472-1.469 1.258-2.465 2.255a51.797 51.797 0 0 0-2.57 2.78c-.105.157-.262.314-.42.577-.21.262-.367.472-.524.629-.158.157-.263.315-.315.367-.262.367-.42.63-.42.734 0 .158.158.315.525.577.367.263.84.787 1.416 1.626.525.84.84 1.311.944 1.469a86.623 86.623 0 0 1 1.94 2.885c.787 1.206 1.364 2.15 1.784 2.78 1.206 1.783 1.94 2.989 2.255 3.618.892 1.679 1.731 2.885 2.465 3.62.525.524.787 1.1.787 1.73 0 .315-.052.577-.21.84-.262.471-.577.681-.996.681-.525 0-.997-.367-1.469-1.154-.42-.734-.734-1.206-.996-1.363-.315-.263-.472-.472-.472-.682 0-.158-.21-.472-.577-.944-.315-.42-.892-1.416-1.679-2.937a42.134 42.134 0 0 0-2.15-3.777c-.315-.472-.682-1.154-1.206-1.94-.42-.787-.892-1.417-1.26-1.941-.629-.84-1.1-1.469-1.468-1.888-.577-.787-.996-1.154-1.154-1.154-.21 0-.314.472-.314 1.416 0 .84 0 1.574.052 2.203.157 4.09.262 7.028.262 8.759 0 2.57-.157 4.458-.42 5.56-.261 1.153-.786 1.94-1.52 2.307a1.848 1.848 0 0 1-1.102.367c-.891 0-1.678-.734-2.36-2.202-.367-.84-.63-1.889-.787-3.2-.21-1.311-.314-3.566-.472-6.818-.052-.892-.367-6.347-.996-16.417-.158-2.098-.21-3.252-.21-3.409 0-1.101-.052-3.147-.157-6.241-.053-2.675-.105-4.091-.105-4.249 0-1.101.105-1.94.314-2.465.368-.996 1.05-1.626 2.046-1.993zM216.06 86.641c.052-.157.262-.21.525-.21.367 0 .734.105 1.1.368.525.367.997 1.206 1.417 2.57.42 1.416.63 2.675.63 3.88v.63c-.053.944-.21 3.095-.368 6.451-.157 3.41-.262 5.35-.262 5.927 0 1.154-.052 2.465-.21 3.986-.157 1.679-.367 2.78-.577 3.305-.262.577-.63.839-1.206.839-.63 0-1.311-.42-2.098-1.311-.787-.84-1.416-1.784-1.783-2.833-.682-1.993-.997-6.189-.997-12.64 0-2.517.105-4.248.262-5.192.368-2.098.682-3.462.945-4.091.262-.63.786-1.05 1.468-1.207.682-.21 1.102-.367 1.154-.472zm-.472-10.647c.262-.157.472-.262.63-.262.262 0 .734.21 1.468.63.892.471 1.521.943 1.888 1.363.367.472.525 1.101.525 1.836v.367c-.053.682-.577 1.363-1.521 2.045-.892.682-1.784 1.05-2.623 1.05-.734 0-1.416-.368-2.045-1.155-.577-.734-.892-1.573-.892-2.517 0-.472.105-.944.315-1.416.262-.525.996-1.154 2.255-1.94z" fill="#fd006a" fill-rule="nonzero"/></g><g><path d="M85.954 141.37c.07-.21.35-.28.7-.28.489 0 .978.14 1.468.49.7.489 1.328 1.608 1.888 3.426.56 1.888.84 3.567.84 5.175v.84c-.07 1.258-.28 4.125-.49 8.6-.21 4.546-.35 7.134-.35 7.903 0 1.539-.07 3.287-.28 5.315-.21 2.238-.49 3.706-.77 4.405-.349.77-.838 1.12-1.607 1.12-.84 0-1.749-.56-2.798-1.749-1.049-1.119-1.888-2.378-2.377-3.776-.91-2.658-1.33-8.252-1.33-16.854 0-3.356.14-5.664.35-6.923.49-2.797.91-4.615 1.26-5.454.349-.84 1.048-1.4 1.957-1.609.91-.28 1.469-.49 1.539-.63zm-.63-14.196c.35-.21.63-.35.84-.35.35 0 .979.28 1.958.84 1.189.629 2.028 1.258 2.517 1.817.49.63.7 1.469.7 2.448v.49c-.07.909-.77 1.818-2.028 2.727-1.19.909-2.378 1.398-3.497 1.398-.979 0-1.888-.49-2.727-1.538-.77-.98-1.19-2.098-1.19-3.357 0-.63.14-1.259.42-1.888.35-.7 1.33-1.538 3.007-2.587z" fill="#fd006a" fill-rule="nonzero"/></g><g><path d="M130.098 156.108c-.787-.472-1.626-.682-2.57-.682-1.416 0-2.57.367-3.409 1.101-.052.053-.367.525-.892 1.364-.524.84-.891 1.259-1.1 1.311-.263.105-.42.944-.42 2.57 0 1.888.052 3.462.157 4.72.052 1.102.157 1.731.21 1.941.052.262.21.42.472.525.052.052.21.052.42.052 1.52 0 3.303-.42 5.244-1.259.787-.367 1.521-.891 2.255-1.678.682-.734 1.207-1.521 1.521-2.308.315-.839.472-1.573.472-2.203v-.42c-.052-.209-.052-.366-.052-.471-.157-2.15-.892-3.672-2.308-4.563zm-13.479-23.392a1.88 1.88 0 0 1 1.259-.472c.577 0 1.049.262 1.468.734.787.892 1.574 2.885 2.308 6.032.367 1.52.525 3.776.525 6.87 0 1.416-.053 3.147-.105 5.193a198.9 198.9 0 0 0-.158 3.304c0 .262 0 .367.053.367.105 0 .577-.157 1.363-.472.84-.367 1.312-.577 1.416-.63.787-.471 1.731-.734 2.938-.734h.367c.682.053 1.626.368 2.78.944 1.206.63 2.097 1.154 2.674 1.731.682.577 1.26 1.626 1.679 3.147.42 1.364.63 2.413.63 3.147v.367c-.053.21-.053.367-.053.472-.105 1.784-.368 3.147-.787 4.144-.42.996-1.154 2.045-2.203 3.094-.63.577-1.311 1.154-1.993 1.73-.682.578-1.101.893-1.259.893-.105 0-.63.21-1.52.576-1.207.577-2.623.84-4.197.84-.577 0-.996 0-1.258-.053l-1.416-.157-.63.787c-.42.472-.787.734-1.049.734-.21 0-.577-.157-1.154-.42-.42-.21-.734-.472-.944-.839-.262-.315-.524-.892-.839-1.783-.105-.262-.157-2.675-.157-7.238a271.73 271.73 0 0 0-.735-16.94c-.262-5.14-.367-8.183-.367-9.074v-.944c0-1.731.105-2.938.315-3.672a2.984 2.984 0 0 1 1.049-1.678zM142.056 146.038c.053-.472.315-.892.682-1.26a1.82 1.82 0 0 1 1.311-.524c.577 0 1.102.263 1.574.787.682.787 1.154 1.469 1.311 2.046.157.629.21 1.835.21 3.723 0 1.941-.053 4.93-.21 8.97-.052 2.57-.105 3.985-.105 4.195 0 1.259.105 2.15.262 2.675.21.734.368 1.259.525 1.52.105.158.262.21.524.21.42 0 1.154-.21 2.256-.576 1.835-.682 3.042-1.731 3.671-3.147.262-.577.525-1.05.787-1.416.577-.63.891-4.353 1.049-11.12.052-2.15.21-3.566.367-4.248.367-1.363.944-2.045 1.678-2.045.367 0 .63-.105.787-.367.367-.472.734-.682 1.206-.682.21 0 .42.052.682.157.472.21.682.367.682.472 0 .158.21.263.577.315.367.105.524.315.524.577 0 .262-.104.682-.314 1.206-.158.472-.263 1.102-.263 1.993 0 .367 0 .787.053 1.311 0 .577 0 1.312.052 2.308.053.997.053 1.888.105 2.728.158 5.087.263 8.549.263 10.437 0 4.038-.42 6.45-1.207 7.238-.42.42-.944.681-1.573.786l-.42.053c-.367 0-.891-.262-1.52-.734-1.312-.997-2.046-2.36-2.204-4.091-.105-1.05-.262-1.574-.42-1.574-.052 0-.419.21-1.048.682-1.731 1.311-3.672 1.993-5.77 1.993-.576 0-.996 0-1.258-.052-.682-.053-1.154-.158-1.416-.315a3.057 3.057 0 0 1-.997-.682c-.63-.577-1.101-1.154-1.416-1.836-.315-.63-.63-1.73-.997-3.356a25.22 25.22 0 0 1-.629-5.612c0-6.714.105-10.49.315-11.33.157-.681.262-1.153.314-1.415zM170.221 132.454c.105-.053.263-.053.472-.053.263 0 1.05.157 2.308.472.84.262 1.311.525 1.364.892v.891c0 .472.105 1.05.314 1.784.42 1.678.682 5.716.84 12.115.052 3.986.157 6.032.262 6.137h.052c.158 0 .42-.21.787-.577.367-.367.63-.735.787-1.102.157-.367 1.31-1.626 3.409-3.724a51.87 51.87 0 0 1 2.622-2.465c.472-.367.84-.524 1.154-.524h.157c.787.052 1.154.367 1.154.892 0 .681-.577 1.468-1.678 2.255-.63.472-1.469 1.259-2.465 2.255a51.797 51.797 0 0 0-2.57 2.78c-.105.157-.262.315-.42.577-.21.262-.367.472-.524.63-.157.157-.262.314-.315.366-.262.367-.42.63-.42.735 0 .157.158.314.525.577.367.262.84.786 1.416 1.625.525.84.84 1.312.944 1.469a86.622 86.622 0 0 1 1.94 2.885c.788 1.206 1.365 2.15 1.784 2.78 1.206 1.783 1.94 2.989 2.255 3.618.892 1.679 1.731 2.885 2.465 3.62.525.524.787 1.1.787 1.73 0 .315-.052.577-.21.84-.262.471-.577.681-.996.681-.525 0-.997-.367-1.469-1.154-.42-.734-.734-1.206-.996-1.363-.315-.263-.472-.472-.472-.682 0-.158-.21-.472-.577-.944-.315-.42-.892-1.416-1.679-2.937a42.134 42.134 0 0 0-2.15-3.777c-.315-.472-.682-1.154-1.206-1.94-.42-.787-.892-1.416-1.259-1.94-.63-.84-1.101-1.47-1.469-1.89-.576-.786-.996-1.153-1.153-1.153-.21 0-.315.472-.315 1.416 0 .84 0 1.574.052 2.203.158 4.091.263 7.028.263 8.759 0 2.57-.158 4.458-.42 5.56-.262 1.153-.787 1.94-1.521 2.307a1.848 1.848 0 0 1-1.101.367c-.892 0-1.679-.734-2.36-2.203-.368-.839-.63-1.888-.787-3.199-.21-1.311-.315-3.566-.472-6.818-.053-.892-.367-6.346-.997-16.417-.157-2.097-.21-3.251-.21-3.409 0-1.101-.052-3.147-.157-6.241-.052-2.675-.105-4.091-.105-4.248 0-1.102.105-1.94.315-2.465.367-.997 1.049-1.626 2.045-1.993zM199.278 149.185c.052-.158.262-.21.524-.21.367 0 .734.105 1.102.367.524.367.996 1.206 1.416 2.57.42 1.416.63 2.675.63 3.881v.63c-.053.944-.21 3.094-.368 6.45-.157 3.41-.262 5.35-.262 5.927 0 1.154-.053 2.465-.21 3.986-.157 1.679-.367 2.78-.577 3.305-.262.577-.63.839-1.206.839-.63 0-1.312-.42-2.098-1.311-.787-.84-1.416-1.784-1.783-2.833-.682-1.993-.997-6.189-.997-12.64 0-2.517.105-4.248.262-5.192.367-2.098.682-3.462.944-4.091.263-.63.787-1.049 1.469-1.206.682-.21 1.101-.368 1.154-.472zm-.472-10.647c.262-.158.472-.263.63-.263.261 0 .733.21 1.468.63.891.472 1.52.944 1.888 1.363.367.472.524 1.102.524 1.836v.367c-.052.682-.577 1.364-1.52 2.046-.892.682-1.784 1.049-2.623 1.049-.734 0-1.416-.367-2.046-1.154-.577-.735-.891-1.574-.891-2.518 0-.472.105-.944.314-1.416.263-.524.997-1.154 2.256-1.94zM225.817 150.968a5.611 5.611 0 0 0-2.256-.472c-1.206 0-2.412.367-3.723 1.154-.473.262-1.102.786-1.836 1.573-.734.787-1.102 1.259-1.102 1.521 0 .053-.052.262-.104.525-.105.262-.053.367.157.367.262-.053.472-.158.734-.42.262-.315.577-.524.944-.577.21-.052.997-.472 2.413-1.259 1.206-.681 2.15-1.101 2.832-1.258.157-.053.472-.105.84-.21.366-.053.629-.105.786-.105.577-.105.892-.21.892-.367s-.21-.315-.577-.472zm-.105 19.878c.786-.315 1.206-.472 1.363-.472.158 0 .42-.105.84-.263.367-.157.681-.21.839-.21.367 0 .524.21.524.683 0 .367-.367.839-1.101 1.468-.787.682-1.416 1.049-1.94 1.101-2.099.368-3.725.735-4.826 1.154-.157.053-.525.105-1.206.105-.158 0-.367 0-.682-.052h-.734c-.997-.053-1.731-.105-2.098-.21-.368-.105-.892-.367-1.521-.734a10.548 10.548 0 0 1-2.046-1.574c-.577-.577-1.311-1.52-2.203-2.727-1.31-1.783-1.993-3.619-1.993-5.56 0-.786.105-1.73.315-2.78.367-1.835.84-3.46 1.364-4.772.734-1.888 1.993-3.62 3.828-5.193 1.784-1.573 3.514-2.465 5.245-2.727.787-.157 1.836-.21 3.252-.21 1.521 0 2.57.158 3.094.42 1.626.892 2.413 1.836 2.413 2.832 0 1.259-1.206 2.308-3.619 3.147-1.364.472-2.937 1.206-4.72 2.15-1.836.945-2.99 1.679-3.514 2.203l-.944.892.052 2.15c.053 2.36.525 4.406 1.469 6.032.891 1.626 2.202 2.727 3.828 3.2.735.261 1.521.366 2.413.366.892 0 1.626-.157 2.308-.42zM245.695 135.18c.576-.366 1.048-.576 1.468-.576.262 0 .577.105.944.262.472.262.787.525.944.787.158.315.21.892.21 1.783 0 .262-.052 1.05-.105 2.308a186.42 186.42 0 0 1-.315 4.668c-.052.472-.052.734 0 .891.053.158.21.263.472.368.21.052.42.104.682.104.42 0 .944-.052 1.574-.157 1.468-.157 2.57-.262 3.252-.262 1.1 0 2.045.157 2.727.524.787.42 1.154.787 1.154 1.102 0 .524-.735.786-2.15.786-.473 0-.787 0-1.05-.052-.21-.052-.629-.052-1.206-.052-3.304 0-5.14.157-5.507.524-.052.053-.105.997-.105 2.832 0 3.2.053 5.612.21 7.133.21 2.098.367 4.563.524 7.343.21 3.986.367 6.189.472 6.661.105.577.158 1.364.158 2.308 0 1.835-.158 3.094-.42 3.724-.472 1.1-1.049 1.625-1.836 1.625-.576 0-1.153-.262-1.835-.839-.577-.472-.944-.996-1.102-1.573-.21-.577-.367-1.731-.524-3.462-.21-1.94-.367-3.252-.472-3.829-.105-.576-.21-4.458-.367-11.538l-.158-10.647h-2.675c-1.625 0-2.832.052-3.618.21-.682.157-1.207.052-1.469-.263-.367-.42-.472-.839-.21-1.31.262-.473 1.888-.735 4.825-.788l3.095-.052.157-.682c.053-.21.21-1.416.42-3.671.262-3.514.891-5.56 1.836-6.19zM278.422 144.674c.577-.367 1.154-.524 1.626-.524.524 0 .944.21 1.259.576.314.368.472.945.472 1.836 0 .787-.158 1.94-.525 3.514-1.049 4.878-1.73 7.658-1.993 8.34-.157.472-.367 1.048-.63 1.835-.261.787-.524 1.521-.838 2.203-.525 1.206-.84 2.15-.997 2.832-.105.42-.21.735-.315.997-.052.262-.157.524-.314.839-.158.367-.315.682-.472 1.049-.21.524-.42 1.101-.682 1.783-.262.682-.525 1.469-.84 2.255-.366 1.102-.943 2.465-1.783 4.196-.786 1.731-1.416 2.885-1.835 3.357-.367.472-.997.734-1.993.787l-.735.052c-.472 0-.839-.157-1.206-.472-.472-.472-.682-1.049-.682-1.783 0-1.05.577-3.252 1.784-6.609 1.31-3.828 2.098-5.926 2.255-6.398.787-1.836 1.154-2.885 1.154-3.042 0-.158-.158-.63-.472-1.312-.42-.996-.944-2.465-1.626-4.405-.367-1.05-.682-1.888-.997-2.57-.367-.63-.682-1.364-.996-2.15-.63-1.522-1.154-2.57-1.626-3.043l-.787-.891.577-.21c.42-.105.682-.315.734-.577.105-.262.42-.367.997-.367.472 0 .787.105.944.315.105.105.315.629.577 1.626.262.839.577 1.73 1.049 2.727 1.049 2.255 1.783 4.196 2.255 5.822.157.629.367 1.049.525 1.258.104.105.157.158.21.158.157 0 .419-.577.786-1.784.157-.576.525-1.573 1.05-2.99.471-1.415.838-2.36.996-2.884.681-2.36 1.206-3.933 1.625-4.668.368-.734.84-1.31 1.469-1.678z" fill="#fd006a" fill-rule="nonzero"/></g></svg>