<svg viewBox="0 0 268 269" xmlns="http://www.w3.org/2000/svg" fill-rule="evenodd" clip-rule="evenodd" stroke-linejoin="round" stroke-miterlimit="2"><circle cx="134" cy="134.01" r="134" fill="#9762d3"/><path d="M231.742 24l-86.963 122.525 3.424 63.043L231.742 24z" fill="#7936c1"/><path d="M231.742 24L58.5 137.669l181.459 18.488L231.742 24z" fill="#8747cc"/><path d="M231.742 24L127.66 144.516l20.543 65.052 8.559-61.628L231.742 24z" fill="#692fa8"/><g><path d="M112.483 165.994l-47.808 67.358 1.882 34.658 45.926-102.016z" fill="#7936c1"/><path d="M112.483 165.994l-95.24 62.489L117 238.647l-4.517-72.653z" fill="#8747cc"/><path d="M112.483 165.994l-57.219 66.254 11.293 35.762 4.705-33.88 41.221-68.136z" fill="#692fa8"/></g><g><path d="M101.608 19.836L56.175 83.848l1.788 32.936 43.645-96.948z" fill="#7936c1"/><path d="M101.608 19.836L11.099 79.221l94.802 9.659-4.293-69.044z" fill="#8747cc"/><path d="M101.608 19.836L47.231 82.798l10.732 33.986 4.472-32.197 39.173-64.751z" fill="#692fa8"/></g></svg>