<?xml version="1.0" encoding="UTF-8" standalone="no"?>
<!DOCTYPE svg PUBLIC "-//W3C//DTD SVG 1.1//EN" "http://www.w3.org/Graphics/SVG/1.1/DTD/svg11.dtd">
<svg width="100%" height="100%" viewBox="0 0 428 272" version="1.1" xmlns="http://www.w3.org/2000/svg" xmlns:xlink="http://www.w3.org/1999/xlink" xml:space="preserve" xmlns:serif="http://www.serif.com/" style="fill-rule:evenodd;clip-rule:evenodd;stroke-linecap:round;stroke-linejoin:round;stroke-miterlimit:1.5;">
    <g transform="matrix(1,0,0,1,-1117,-3466.47)">
        <g transform="matrix(1,0,0,0.585185,-1970,3240)">
            <g transform="matrix(1,0,0,1.70886,1970,-5536.71)">
                <path d="M1235.17,3511C1232.06,3506.43 1230.24,3500.92 1230.24,3494.98C1230.24,3494.98 1230.24,3494.98 1230.24,3494.98C1230.24,3479.23 1243.01,3466.47 1258.75,3466.47C1296.51,3466.47 1362.73,3466.47 1400.49,3466.47C1416.24,3466.47 1429,3479.23 1429,3494.98C1429,3494.98 1429,3494.98 1429,3494.98C1429,3500.92 1427.18,3506.43 1424.08,3511L1454.9,3511C1470.64,3511 1483.41,3523.76 1483.41,3539.51C1483.41,3539.51 1483.41,3539.51 1483.41,3539.51C1483.41,3547.36 1480.24,3554.46 1475.11,3559.62L1487.17,3559.62C1501.4,3559.62 1512.93,3571.15 1512.93,3585.37L1512.93,3585.43C1531.24,3589.22 1545,3605.44 1545,3624.88L1545,3625.77C1545,3648.02 1526.96,3666.06 1504.71,3666.06L1472.76,3666.06C1472.92,3667.24 1473,3668.45 1473,3669.66C1473,3669.66 1473,3669.66 1473,3669.66C1473,3676.91 1470.12,3683.87 1464.99,3688.99C1459.87,3694.12 1452.91,3697 1445.66,3697L1417.64,3697C1419.16,3700.43 1420,3704.22 1420,3708.21L1420,3708.21C1420,3723.53 1407.58,3735.96 1392.26,3735.96L1250.74,3735.96C1235.42,3735.96 1223,3723.53 1223,3708.21L1223,3708.21C1223,3704.22 1223.84,3700.43 1225.36,3697L1205.34,3697C1198.09,3697 1191.13,3694.12 1186.01,3688.99C1180.88,3683.87 1178,3676.91 1178,3669.66C1178,3669.66 1178,3669.66 1178,3669.66C1178,3668.45 1178.08,3667.24 1178.24,3666.06L1157.29,3666.06C1135.04,3666.06 1117,3648.02 1117,3625.77L1117,3624.88C1117,3602.63 1135.04,3584.59 1157.29,3584.59L1164.94,3584.59C1165.35,3570.73 1176.72,3559.62 1190.68,3559.62L1210.78,3559.62C1205.65,3554.46 1202.48,3547.36 1202.48,3539.51C1202.48,3539.51 1202.48,3539.51 1202.48,3539.51C1202.48,3523.76 1215.24,3511 1230.99,3511L1235.17,3511Z" style="fill:rgb(231,238,244);"/>
            </g>
        </g>
        <g transform="matrix(1,0,0,0.585185,-1970,3240)">
            <g transform="matrix(0.870153,0,0,1.48697,2115.39,-4726.41)">
                <circle cx="1393.5" cy="3586.5" r="127.5" style="fill:rgb(228,226,247);stroke:rgb(157,150,228);stroke-width:9.19px;stroke-dasharray:64.36,45.97,0,0;"/>
            </g>
        </g>
        <g transform="matrix(1,0,0,0.585185,-1970,3240)">
            <g transform="matrix(0.765893,0,0,0.765893,570.205,130.54)">
                <g transform="matrix(0.376441,0,0,0.643286,3080.17,-1735.88)">
                    <path d="M1385.05,3279.93L1258.05,3458.87L1263.05,3550.93L1385.05,3279.93Z" style="fill:rgb(86,74,208);"/>
                </g>
                <g transform="matrix(0.376441,0,0,0.643286,3082.18,-1778.14)">
                    <path d="M1379.73,3345.62L1126.73,3511.62L1391.73,3538.62L1379.73,3345.62Z" style="fill:rgb(102,91,212);"/>
                </g>
                <g transform="matrix(0.376441,0,0,0.643286,3051.21,-1789.32)">
                    <path d="M1462,3363L1310,3539L1340,3634L1352.5,3544L1462,3363Z" style="fill:rgb(86,74,208);"/>
                </g>
            </g>
        </g>
        <g transform="matrix(1,0,0,0.585185,-1970,3240)">
            <g transform="matrix(1,0,0,1,107,95.7404)">
                <g transform="matrix(199.307,-125.622,73.5119,340.588,3068.97,688.086)">
                    <path d="M0.583,-0.091C0.572,-0.091 0.562,-0.092 0.552,-0.094C0.542,-0.096 0.533,-0.1 0.524,-0.105C0.515,-0.11 0.507,-0.116 0.5,-0.124C0.493,-0.132 0.487,-0.141 0.483,-0.153C0.463,-0.131 0.442,-0.115 0.42,-0.106C0.398,-0.096 0.375,-0.092 0.35,-0.092C0.328,-0.092 0.309,-0.095 0.293,-0.103C0.277,-0.11 0.263,-0.121 0.252,-0.134C0.241,-0.147 0.233,-0.163 0.227,-0.182C0.222,-0.2 0.219,-0.22 0.219,-0.242C0.219,-0.261 0.221,-0.28 0.226,-0.3C0.231,-0.319 0.238,-0.338 0.248,-0.356C0.258,-0.374 0.27,-0.392 0.285,-0.408C0.3,-0.424 0.317,-0.438 0.337,-0.45C0.357,-0.462 0.38,-0.471 0.405,-0.478C0.431,-0.485 0.459,-0.489 0.49,-0.489C0.505,-0.489 0.518,-0.488 0.53,-0.487C0.542,-0.486 0.553,-0.484 0.564,-0.482C0.574,-0.48 0.584,-0.477 0.593,-0.474C0.595,-0.473 0.597,-0.473 0.6,-0.472C0.612,-0.467 0.619,-0.454 0.615,-0.442C0.603,-0.392 0.572,-0.274 0.572,-0.274C0.567,-0.254 0.565,-0.239 0.565,-0.227C0.565,-0.21 0.568,-0.199 0.576,-0.193C0.583,-0.186 0.593,-0.183 0.606,-0.183C0.618,-0.183 0.629,-0.187 0.64,-0.196C0.65,-0.204 0.659,-0.216 0.667,-0.231C0.675,-0.246 0.681,-0.264 0.685,-0.284C0.69,-0.304 0.692,-0.327 0.692,-0.35C0.692,-0.392 0.686,-0.428 0.674,-0.46C0.661,-0.491 0.644,-0.518 0.621,-0.539C0.598,-0.56 0.57,-0.577 0.538,-0.588C0.506,-0.599 0.47,-0.604 0.431,-0.604C0.388,-0.604 0.348,-0.596 0.313,-0.58C0.277,-0.564 0.246,-0.542 0.22,-0.514C0.194,-0.486 0.173,-0.454 0.159,-0.417C0.144,-0.38 0.137,-0.34 0.137,-0.298C0.137,-0.244 0.145,-0.197 0.161,-0.157C0.177,-0.117 0.2,-0.083 0.228,-0.056C0.257,-0.029 0.291,-0.009 0.33,0.005C0.369,0.018 0.411,0.025 0.457,0.025C0.483,0.025 0.508,0.024 0.53,0.021C0.552,0.018 0.572,0.014 0.59,0.01C0.608,0.005 0.624,0 0.638,-0.006C0.652,-0.011 0.664,-0.017 0.674,-0.023C0.681,-0.027 0.688,-0.029 0.695,-0.029C0.706,-0.029 0.714,-0.022 0.719,-0.01C0.719,-0.01 0.723,0 0.727,0.011C0.735,0.031 0.726,0.053 0.708,0.063C0.7,0.067 0.693,0.071 0.685,0.074C0.665,0.084 0.643,0.092 0.619,0.099C0.596,0.106 0.571,0.111 0.544,0.115C0.517,0.119 0.488,0.121 0.457,0.121C0.394,0.121 0.337,0.111 0.284,0.092C0.231,0.072 0.186,0.044 0.147,0.008C0.109,-0.028 0.079,-0.072 0.057,-0.124C0.036,-0.176 0.025,-0.234 0.025,-0.298C0.025,-0.333 0.03,-0.367 0.039,-0.401C0.048,-0.434 0.062,-0.466 0.079,-0.496C0.096,-0.525 0.117,-0.553 0.141,-0.578C0.166,-0.603 0.193,-0.624 0.223,-0.642C0.253,-0.66 0.285,-0.675 0.321,-0.685C0.356,-0.695 0.392,-0.7 0.431,-0.7C0.463,-0.7 0.495,-0.696 0.526,-0.689C0.557,-0.681 0.586,-0.671 0.613,-0.657C0.641,-0.643 0.666,-0.625 0.689,-0.605C0.712,-0.585 0.732,-0.562 0.749,-0.536C0.766,-0.51 0.779,-0.481 0.788,-0.45C0.797,-0.419 0.802,-0.386 0.802,-0.35C0.802,-0.315 0.797,-0.281 0.786,-0.25C0.775,-0.218 0.76,-0.191 0.74,-0.167C0.721,-0.144 0.698,-0.125 0.671,-0.112C0.644,-0.098 0.615,-0.091 0.583,-0.091ZM0.381,-0.187C0.388,-0.187 0.396,-0.188 0.403,-0.191C0.41,-0.193 0.417,-0.197 0.423,-0.202C0.429,-0.208 0.435,-0.215 0.44,-0.224C0.445,-0.233 0.45,-0.244 0.453,-0.258C0.453,-0.258 0.474,-0.338 0.483,-0.375C0.484,-0.38 0.483,-0.385 0.48,-0.389C0.477,-0.393 0.473,-0.395 0.468,-0.395C0.466,-0.395 0.465,-0.395 0.464,-0.396C0.447,-0.396 0.431,-0.392 0.416,-0.384C0.401,-0.376 0.387,-0.365 0.376,-0.351C0.364,-0.337 0.355,-0.321 0.348,-0.303C0.341,-0.285 0.338,-0.266 0.338,-0.246C0.338,-0.226 0.342,-0.211 0.349,-0.202C0.357,-0.192 0.367,-0.187 0.381,-0.187Z" style="fill:rgb(105,217,80);fill-rule:nonzero;"/>
                </g>
                <g transform="matrix(0.783719,0,0,1.33927,2209.88,-4207.21)">
                    <path d="M1100.16,3484.77C1111.59,3467.64 1129.69,3455.28 1143.02,3449.38C1145.55,3448.27 1146.69,3445.31 1145.57,3442.79C1144.46,3440.26 1141.5,3439.12 1138.98,3440.24C1124.31,3446.72 1104.41,3460.37 1091.84,3479.23C1090.31,3481.52 1090.93,3484.63 1093.23,3486.16C1095.52,3487.69 1098.63,3487.07 1100.16,3484.77Z" style="fill:white;"/>
                </g>
                <g transform="matrix(0.783719,0,0,1.33927,2217.71,-3984.92)">
                    <path d="M1113.86,3454.38C1109.41,3452.6 1097.9,3442.76 1094.34,3436.54C1092.97,3434.14 1089.91,3433.31 1087.52,3434.68C1085.12,3436.05 1084.29,3439.11 1085.66,3441.5C1090.1,3449.28 1104.59,3461.44 1110.14,3463.66C1112.7,3464.69 1115.62,3463.44 1116.64,3460.88C1117.67,3458.32 1116.42,3455.4 1113.86,3454.38Z" style="fill:white;"/>
                </g>
                <g transform="matrix(0.783719,0,0,1.33927,2181.89,-4281.12)">
                    <circle cx="1187.5" cy="3495.5" r="4.5" style="fill:white;"/>
                </g>
                <g transform="matrix(0.783719,0,0,1.33927,2135.55,-4073.81)">
                    <circle cx="1187.5" cy="3495.5" r="4.5" style="fill:white;"/>
                </g>
                <g transform="matrix(0.783719,0,0,1.33927,2217.54,-4217.57)">
                    <circle cx="1187.5" cy="3495.5" r="4.5" style="fill:white;"/>
                </g>
            </g>
        </g>
        <g transform="matrix(1,0,0,0.585185,-1970,3240)">
            <g transform="matrix(1.10759,0,0,1.10759,-666.129,244.169)">
                <g transform="matrix(0.376441,0,0,0.643286,3080.17,-1735.88)">
                    <path d="M1385.05,3279.93L1258.05,3458.87L1263.05,3550.93L1385.05,3279.93Z" style="fill:rgb(101,89,212);"/>
                </g>
                <g transform="matrix(0.376441,0,0,0.643286,3082.18,-1778.14)">
                    <path d="M1379.73,3345.62L1126.73,3511.62L1391.73,3538.62L1379.73,3345.62Z" style="fill:rgb(102,91,212);"/>
                </g>
                <g transform="matrix(0.376441,0,0,0.643286,3051.21,-1789.32)">
                    <path d="M1462,3363L1310,3539L1340,3634L1352.5,3544L1462,3363Z" style="fill:rgb(86,74,208);"/>
                </g>
            </g>
        </g>
        <g transform="matrix(1,0,0,0.585185,-1970,3240)">
            <g transform="matrix(0.766942,0,0,0.766942,840.732,150.859)">
                <g transform="matrix(0.719557,0,0,1.22962,2382.43,-3646.01)">
                    <path d="M1385.05,3279.93L1258.05,3458.87L1263.05,3550.93L1385.05,3279.93Z" style="fill:rgb(91,78,209);"/>
                </g>
                <g transform="matrix(0.719557,0,0,1.22962,2386.25,-3726.78)">
                    <path d="M1379.73,3345.62L1126.73,3511.62L1391.73,3538.62L1379.73,3345.62Z" style="fill:rgb(112,101,215);"/>
                </g>
                <g transform="matrix(0.719557,0,0,1.22962,2327.06,-3748.15)">
                    <path d="M1462,3363L1310,3539L1340,3634L1352.5,3544L1462,3363Z" style="fill:rgb(74,60,204);"/>
                </g>
            </g>
        </g>
    </g>
</svg>
